<svg xmlns="http://www.w3.org/2000/svg" xmlns:xlink="http://www.w3.org/1999/xlink" width="500" zoomAndPan="magnify" viewBox="0 0 375 374.999991" height="500" preserveAspectRatio="xMidYMid meet" version="1.0"><defs><g/><clipPath id="d974c8a4a2"><path d="M 44.363281 31.378906 L 330.636719 31.378906 L 330.636719 317.652344 L 44.363281 317.652344 Z M 44.363281 31.378906 " clip-rule="nonzero"/></clipPath><clipPath id="5311acd4e0"><path d="M 187.5 31.378906 C 108.449219 31.378906 44.363281 95.464844 44.363281 174.515625 C 44.363281 253.566406 108.449219 317.652344 187.5 317.652344 C 266.550781 317.652344 330.636719 253.566406 330.636719 174.515625 C 330.636719 95.464844 266.550781 31.378906 187.5 31.378906 Z M 187.5 31.378906 " clip-rule="nonzero"/></clipPath><clipPath id="cdd869f4f7"><path d="M 44.363281 31.378906 L 330.628906 31.378906 L 330.628906 317.644531 L 44.363281 317.644531 Z M 44.363281 31.378906 " clip-rule="nonzero"/></clipPath><clipPath id="7d6283bce9"><path d="M 187.496094 31.378906 C 108.445312 31.378906 44.363281 95.460938 44.363281 174.511719 C 44.363281 253.5625 108.445312 317.644531 187.496094 317.644531 C 266.546875 317.644531 330.628906 253.5625 330.628906 174.511719 C 330.628906 95.460938 266.546875 31.378906 187.496094 31.378906 Z M 187.496094 31.378906 " clip-rule="nonzero"/></clipPath><clipPath id="b26d3e6980"><path d="M 262 91 L 312.703125 91 L 312.703125 119 L 262 119 Z M 262 91 " clip-rule="nonzero"/></clipPath><clipPath id="73094c7c47"><path d="M 212.203125 91 L 265 91 L 265 133 L 212.203125 133 Z M 212.203125 91 " clip-rule="nonzero"/></clipPath><clipPath id="dace38a6e1"><path d="M 233 136 L 263 136 L 263 179.988281 L 233 179.988281 Z M 233 136 " clip-rule="nonzero"/></clipPath><clipPath id="3fcfb02922"><path d="M 267 136 L 297 136 L 297 179.988281 L 267 179.988281 Z M 267 136 " clip-rule="nonzero"/></clipPath></defs><rect x="-37.5" width="450" fill="#ffffff" y="-37.499999" height="449.999989" fill-opacity="1"/><rect x="-37.5" width="450" fill="#fdf9f7" y="-37.499999" height="449.999989" fill-opacity="1"/><g clip-path="url(#d974c8a4a2)"><g clip-path="url(#5311acd4e0)"><path fill="#ffcc00" d="M 44.363281 31.378906 L 330.636719 31.378906 L 330.636719 317.652344 L 44.363281 317.652344 Z M 44.363281 31.378906 " fill-opacity="1" fill-rule="nonzero"/></g></g><g clip-path="url(#cdd869f4f7)"><g clip-path="url(#7d6283bce9)"><path stroke-linecap="butt" transform="matrix(0.75, 0, 0, 0.75, 44.363495, 31.379229)" fill="none" stroke-linejoin="miter" d="M 190.843477 -0.000430306 C 85.442429 -0.000430306 -0.000285249 85.442284 -0.000285249 190.843332 C -0.000285249 296.244381 85.442429 381.687095 190.843477 381.687095 C 296.244526 381.687095 381.68724 296.244381 381.68724 190.843332 C 381.68724 85.442284 296.244526 -0.000430306 190.843477 -0.000430306 Z M 190.843477 -0.000430306 " stroke="#000000" stroke-width="14" stroke-opacity="1" stroke-miterlimit="4"/></g></g><g fill="#4d3f0a" fill-opacity="0.4"><g transform="translate(283.763688, 211.173941)"><g><path d="M 11.640625 -6.710938 C 11.640625 -7.027344 11.664062 -7.34375 11.664062 -7.65625 C 11.664062 -8.035156 11.683594 -8.410156 11.683594 -8.789062 C 11.683594 -9.542969 11.683594 -10.300781 11.707031 -11.054688 C 11.707031 -11.957031 11.707031 -12.859375 11.578125 -13.761719 C 11.558594 -13.929688 11.515625 -14.074219 11.453125 -14.222656 C 11.328125 -14.578125 11.011719 -14.746094 10.675781 -14.808594 C 10.195312 -14.894531 9.710938 -14.914062 9.230469 -14.832031 C 8.9375 -14.789062 8.746094 -14.640625 8.621094 -14.410156 C 8.539062 -14.285156 8.476562 -14.160156 8.433594 -14.011719 C 8.246094 -13.550781 8.054688 -13.070312 7.867188 -12.585938 C 7.511719 -11.707031 7.027344 -10.886719 6.628906 -10.046875 C 6.628906 -10.027344 6.609375 -10.027344 6.609375 -10.027344 C 6.460938 -9.796875 6.230469 -9.796875 6.082031 -10.027344 C 6.082031 -10.070312 6.0625 -10.109375 6.042969 -10.132812 C 5.789062 -10.636719 5.539062 -11.117188 5.285156 -11.621094 C 4.972656 -12.1875 4.761719 -12.796875 4.53125 -13.40625 C 4.363281 -13.78125 4.195312 -14.160156 4.046875 -14.539062 C 4.007812 -14.640625 3.945312 -14.707031 3.839844 -14.769531 C 3.648438 -14.832031 3.460938 -14.9375 3.25 -14.894531 C 3.167969 -14.894531 3.105469 -14.894531 3.019531 -14.894531 C 2.601562 -14.871094 2.183594 -14.832031 1.761719 -14.808594 C 1.46875 -14.789062 1.28125 -14.640625 1.152344 -14.371094 C 1.027344 -14.097656 0.984375 -13.78125 0.984375 -13.46875 C 0.964844 -12.839844 0.984375 -12.1875 0.964844 -11.539062 C 0.964844 -11.097656 0.921875 -10.65625 0.902344 -10.214844 C 0.902344 -9.167969 0.902344 -8.097656 0.921875 -7.046875 C 0.964844 -5.914062 0.945312 -4.761719 0.882812 -3.628906 C 0.839844 -2.683594 0.839844 -1.761719 0.839844 -0.816406 C 0.839844 -0.671875 0.859375 -0.503906 0.945312 -0.398438 C 1.070312 -0.230469 1.238281 -0.0625 1.449219 0 C 1.679688 0.0820312 1.910156 0.148438 2.140625 0.125 C 2.246094 0.105469 2.371094 0.105469 2.476562 0.125 C 2.683594 0.125 2.914062 0.167969 3.125 0.167969 C 3.398438 0.1875 3.671875 0.0429688 3.777344 -0.230469 C 3.859375 -0.417969 3.902344 -0.609375 3.921875 -0.816406 C 3.921875 -1.050781 3.921875 -1.28125 3.945312 -1.53125 C 3.945312 -3.292969 3.964844 -5.054688 3.964844 -6.816406 C 3.964844 -6.964844 3.964844 -7.089844 3.984375 -7.214844 C 3.984375 -7.277344 4.007812 -7.34375 4.089844 -7.382812 C 4.152344 -7.40625 4.214844 -7.363281 4.28125 -7.320312 C 4.425781 -7.195312 4.488281 -7.027344 4.574219 -6.859375 C 4.761719 -6.460938 4.949219 -6.042969 5.140625 -5.644531 C 5.328125 -5.246094 5.515625 -4.867188 5.707031 -4.488281 C 5.8125 -4.28125 5.914062 -4.070312 6.0625 -3.878906 C 6.1875 -3.714844 6.523438 -3.714844 6.648438 -3.878906 C 6.796875 -4.070312 6.921875 -4.300781 7.027344 -4.53125 C 7.175781 -4.804688 7.300781 -5.097656 7.425781 -5.390625 C 7.679688 -5.875 7.910156 -6.355469 8.140625 -6.839844 C 8.222656 -7.007812 8.308594 -7.175781 8.390625 -7.320312 C 8.433594 -7.40625 8.496094 -7.40625 8.578125 -7.382812 C 8.707031 -7.34375 8.746094 -7.277344 8.746094 -7.113281 C 8.746094 -6.460938 8.746094 -5.8125 8.746094 -5.160156 C 8.769531 -3.816406 8.789062 -2.476562 8.789062 -1.113281 C 8.789062 -0.777344 8.894531 -0.484375 9.019531 -0.1875 C 9.144531 0.0820312 9.355469 0.167969 9.609375 0.167969 C 9.796875 0.167969 9.984375 0.148438 10.175781 0.125 C 10.300781 0.125 10.425781 0.105469 10.574219 0.125 C 10.71875 0.125 10.867188 0.125 11.011719 0.0820312 C 11.328125 0.0429688 11.515625 -0.148438 11.621094 -0.441406 C 11.683594 -0.628906 11.707031 -0.839844 11.707031 -1.027344 C 11.683594 -2.097656 11.664062 -3.167969 11.640625 -4.214844 C 11.640625 -4.929688 11.640625 -5.644531 11.640625 -6.355469 C 11.640625 -6.480469 11.640625 -6.609375 11.640625 -6.710938 Z M 11.640625 -6.710938 "/></g></g></g><g fill="#4d3f0a" fill-opacity="0.4"><g transform="translate(296.202645, 211.173941)"><g><path d="M 2.390625 -14.601562 C 2.183594 -14.664062 1.949219 -14.578125 1.742188 -14.496094 C 1.511719 -14.371094 1.320312 -14.222656 1.28125 -13.949219 C 1.238281 -13.761719 1.238281 -13.574219 1.320312 -13.382812 C 1.488281 -12.984375 1.636719 -12.609375 1.824219 -12.207031 C 2.140625 -11.539062 2.476562 -10.886719 2.789062 -10.195312 C 3.042969 -9.671875 3.335938 -9.167969 3.648438 -8.664062 C 3.734375 -8.539062 3.816406 -8.390625 3.878906 -8.246094 C 4.046875 -7.929688 4.046875 -7.613281 3.859375 -7.277344 C 3.609375 -6.839844 3.378906 -6.378906 3.167969 -5.9375 C 2.9375 -5.453125 2.707031 -4.972656 2.476562 -4.488281 C 2.183594 -3.859375 1.886719 -3.230469 1.59375 -2.601562 C 1.363281 -2.097656 1.152344 -1.59375 0.921875 -1.113281 C 0.796875 -0.839844 0.777344 -0.585938 0.796875 -0.335938 C 0.796875 -0.167969 0.882812 -0.0429688 1.089844 -0.0195312 C 1.175781 0 1.257812 0.0195312 1.34375 0.0195312 C 1.78125 0.0195312 2.246094 0.0195312 2.683594 0 C 2.789062 0 2.914062 0 3.019531 -0.0195312 C 3.230469 -0.0820312 3.441406 -0.1875 3.523438 -0.417969 C 3.691406 -0.777344 3.878906 -1.132812 4.070312 -1.488281 C 4.40625 -2.183594 4.742188 -2.851562 5.078125 -3.546875 C 5.179688 -3.734375 5.285156 -3.945312 5.390625 -4.152344 C 5.453125 -4.257812 5.515625 -4.34375 5.644531 -4.363281 C 5.8125 -4.382812 5.894531 -4.34375 5.980469 -4.175781 C 6.230469 -3.671875 6.503906 -3.167969 6.734375 -2.644531 C 7.027344 -1.949219 7.382812 -1.28125 7.71875 -0.609375 C 7.84375 -0.355469 8.054688 -0.1875 8.308594 -0.0625 C 8.558594 0.0625 8.832031 0.125 9.125 0.105469 C 9.273438 0.105469 9.398438 0.125 9.542969 0.125 C 9.777344 0.148438 10.027344 0.0820312 10.214844 -0.0195312 C 10.507812 -0.1875 10.613281 -0.460938 10.636719 -0.777344 C 10.65625 -1.113281 10.574219 -1.449219 10.445312 -1.742188 C 10.257812 -2.203125 10.007812 -2.664062 9.796875 -3.105469 C 9.609375 -3.441406 9.417969 -3.777344 9.273438 -4.113281 C 9 -4.65625 8.746094 -5.246094 8.476562 -5.789062 C 8.203125 -6.378906 7.910156 -6.945312 7.613281 -7.511719 C 7.511719 -7.71875 7.488281 -7.949219 7.613281 -8.179688 C 7.65625 -8.285156 7.71875 -8.410156 7.78125 -8.515625 C 7.972656 -8.875 8.160156 -9.230469 8.328125 -9.609375 C 8.769531 -10.46875 9.167969 -11.371094 9.523438 -12.273438 C 9.566406 -12.355469 9.609375 -12.441406 9.671875 -12.523438 C 9.859375 -12.796875 9.964844 -13.089844 10.027344 -13.40625 C 10.070312 -13.53125 10.070312 -13.636719 10.109375 -13.742188 C 10.152344 -13.84375 10.132812 -13.949219 10.089844 -14.035156 C 10.070312 -14.117188 10.027344 -14.179688 9.984375 -14.265625 C 9.921875 -14.390625 9.796875 -14.472656 9.648438 -14.515625 C 9.542969 -14.539062 9.441406 -14.539062 9.335938 -14.539062 C 9.082031 -14.539062 8.832031 -14.539062 8.601562 -14.515625 C 8.371094 -14.515625 8.140625 -14.515625 7.910156 -14.472656 C 7.53125 -14.433594 7.277344 -14.242188 7.152344 -13.867188 C 7.046875 -13.574219 6.945312 -13.277344 6.816406 -13.007812 C 6.585938 -12.460938 6.378906 -11.9375 6.082031 -11.453125 C 6.042969 -11.410156 6 -11.347656 5.957031 -11.285156 C 5.8125 -11.160156 5.644531 -11.160156 5.539062 -11.347656 C 5.453125 -11.453125 5.390625 -11.578125 5.308594 -11.707031 C 5.140625 -11.976562 4.992188 -12.25 4.867188 -12.566406 C 4.71875 -12.941406 4.574219 -13.339844 4.425781 -13.71875 C 4.34375 -13.90625 4.214844 -14.074219 4.027344 -14.179688 C 3.945312 -14.222656 3.859375 -14.242188 3.777344 -14.285156 C 3.355469 -14.496094 2.914062 -14.640625 2.390625 -14.601562 Z M 2.390625 -14.601562 "/></g></g></g><g fill="#372a28" fill-opacity="1"><g transform="translate(282.836354, 210.246593)"><g><path d="M 11.640625 -6.710938 C 11.640625 -7.027344 11.664062 -7.34375 11.664062 -7.65625 C 11.664062 -8.035156 11.683594 -8.410156 11.683594 -8.789062 C 11.683594 -9.542969 11.683594 -10.300781 11.707031 -11.054688 C 11.707031 -11.957031 11.707031 -12.859375 11.578125 -13.761719 C 11.558594 -13.929688 11.515625 -14.074219 11.453125 -14.222656 C 11.328125 -14.578125 11.011719 -14.746094 10.675781 -14.808594 C 10.195312 -14.894531 9.710938 -14.914062 9.230469 -14.832031 C 8.9375 -14.789062 8.746094 -14.640625 8.621094 -14.410156 C 8.539062 -14.285156 8.476562 -14.160156 8.433594 -14.011719 C 8.246094 -13.550781 8.054688 -13.070312 7.867188 -12.585938 C 7.511719 -11.707031 7.027344 -10.886719 6.628906 -10.046875 C 6.628906 -10.027344 6.609375 -10.027344 6.609375 -10.027344 C 6.460938 -9.796875 6.230469 -9.796875 6.082031 -10.027344 C 6.082031 -10.070312 6.0625 -10.109375 6.042969 -10.132812 C 5.789062 -10.636719 5.539062 -11.117188 5.285156 -11.621094 C 4.972656 -12.1875 4.761719 -12.796875 4.53125 -13.40625 C 4.363281 -13.78125 4.195312 -14.160156 4.046875 -14.539062 C 4.007812 -14.640625 3.945312 -14.707031 3.839844 -14.769531 C 3.648438 -14.832031 3.460938 -14.9375 3.25 -14.894531 C 3.167969 -14.894531 3.105469 -14.894531 3.019531 -14.894531 C 2.601562 -14.871094 2.183594 -14.832031 1.761719 -14.808594 C 1.46875 -14.789062 1.28125 -14.640625 1.152344 -14.371094 C 1.027344 -14.097656 0.984375 -13.78125 0.984375 -13.46875 C 0.964844 -12.839844 0.984375 -12.1875 0.964844 -11.539062 C 0.964844 -11.097656 0.921875 -10.65625 0.902344 -10.214844 C 0.902344 -9.167969 0.902344 -8.097656 0.921875 -7.046875 C 0.964844 -5.914062 0.945312 -4.761719 0.882812 -3.628906 C 0.839844 -2.683594 0.839844 -1.761719 0.839844 -0.816406 C 0.839844 -0.671875 0.859375 -0.503906 0.945312 -0.398438 C 1.070312 -0.230469 1.238281 -0.0625 1.449219 0 C 1.679688 0.0820312 1.910156 0.148438 2.140625 0.125 C 2.246094 0.105469 2.371094 0.105469 2.476562 0.125 C 2.683594 0.125 2.914062 0.167969 3.125 0.167969 C 3.398438 0.1875 3.671875 0.0429688 3.777344 -0.230469 C 3.859375 -0.417969 3.902344 -0.609375 3.921875 -0.816406 C 3.921875 -1.050781 3.921875 -1.28125 3.945312 -1.53125 C 3.945312 -3.292969 3.964844 -5.054688 3.964844 -6.816406 C 3.964844 -6.964844 3.964844 -7.089844 3.984375 -7.214844 C 3.984375 -7.277344 4.007812 -7.34375 4.089844 -7.382812 C 4.152344 -7.40625 4.214844 -7.363281 4.28125 -7.320312 C 4.425781 -7.195312 4.488281 -7.027344 4.574219 -6.859375 C 4.761719 -6.460938 4.949219 -6.042969 5.140625 -5.644531 C 5.328125 -5.246094 5.515625 -4.867188 5.707031 -4.488281 C 5.8125 -4.28125 5.914062 -4.070312 6.0625 -3.878906 C 6.1875 -3.714844 6.523438 -3.714844 6.648438 -3.878906 C 6.796875 -4.070312 6.921875 -4.300781 7.027344 -4.53125 C 7.175781 -4.804688 7.300781 -5.097656 7.425781 -5.390625 C 7.679688 -5.875 7.910156 -6.355469 8.140625 -6.839844 C 8.222656 -7.007812 8.308594 -7.175781 8.390625 -7.320312 C 8.433594 -7.40625 8.496094 -7.40625 8.578125 -7.382812 C 8.707031 -7.34375 8.746094 -7.277344 8.746094 -7.113281 C 8.746094 -6.460938 8.746094 -5.8125 8.746094 -5.160156 C 8.769531 -3.816406 8.789062 -2.476562 8.789062 -1.113281 C 8.789062 -0.777344 8.894531 -0.484375 9.019531 -0.1875 C 9.144531 0.0820312 9.355469 0.167969 9.609375 0.167969 C 9.796875 0.167969 9.984375 0.148438 10.175781 0.125 C 10.300781 0.125 10.425781 0.105469 10.574219 0.125 C 10.71875 0.125 10.867188 0.125 11.011719 0.0820312 C 11.328125 0.0429688 11.515625 -0.148438 11.621094 -0.441406 C 11.683594 -0.628906 11.707031 -0.839844 11.707031 -1.027344 C 11.683594 -2.097656 11.664062 -3.167969 11.640625 -4.214844 C 11.640625 -4.929688 11.640625 -5.644531 11.640625 -6.355469 C 11.640625 -6.480469 11.640625 -6.609375 11.640625 -6.710938 Z M 11.640625 -6.710938 "/></g></g></g><g fill="#372a28" fill-opacity="1"><g transform="translate(295.275311, 210.246593)"><g><path d="M 2.390625 -14.601562 C 2.183594 -14.664062 1.949219 -14.578125 1.742188 -14.496094 C 1.511719 -14.371094 1.320312 -14.222656 1.28125 -13.949219 C 1.238281 -13.761719 1.238281 -13.574219 1.320312 -13.382812 C 1.488281 -12.984375 1.636719 -12.609375 1.824219 -12.207031 C 2.140625 -11.539062 2.476562 -10.886719 2.789062 -10.195312 C 3.042969 -9.671875 3.335938 -9.167969 3.648438 -8.664062 C 3.734375 -8.539062 3.816406 -8.390625 3.878906 -8.246094 C 4.046875 -7.929688 4.046875 -7.613281 3.859375 -7.277344 C 3.609375 -6.839844 3.378906 -6.378906 3.167969 -5.9375 C 2.9375 -5.453125 2.707031 -4.972656 2.476562 -4.488281 C 2.183594 -3.859375 1.886719 -3.230469 1.59375 -2.601562 C 1.363281 -2.097656 1.152344 -1.59375 0.921875 -1.113281 C 0.796875 -0.839844 0.777344 -0.585938 0.796875 -0.335938 C 0.796875 -0.167969 0.882812 -0.0429688 1.089844 -0.0195312 C 1.175781 0 1.257812 0.0195312 1.34375 0.0195312 C 1.78125 0.0195312 2.246094 0.0195312 2.683594 0 C 2.789062 0 2.914062 0 3.019531 -0.0195312 C 3.230469 -0.0820312 3.441406 -0.1875 3.523438 -0.417969 C 3.691406 -0.777344 3.878906 -1.132812 4.070312 -1.488281 C 4.40625 -2.183594 4.742188 -2.851562 5.078125 -3.546875 C 5.179688 -3.734375 5.285156 -3.945312 5.390625 -4.152344 C 5.453125 -4.257812 5.515625 -4.34375 5.644531 -4.363281 C 5.8125 -4.382812 5.894531 -4.34375 5.980469 -4.175781 C 6.230469 -3.671875 6.503906 -3.167969 6.734375 -2.644531 C 7.027344 -1.949219 7.382812 -1.28125 7.71875 -0.609375 C 7.84375 -0.355469 8.054688 -0.1875 8.308594 -0.0625 C 8.558594 0.0625 8.832031 0.125 9.125 0.105469 C 9.273438 0.105469 9.398438 0.125 9.542969 0.125 C 9.777344 0.148438 10.027344 0.0820312 10.214844 -0.0195312 C 10.507812 -0.1875 10.613281 -0.460938 10.636719 -0.777344 C 10.65625 -1.113281 10.574219 -1.449219 10.445312 -1.742188 C 10.257812 -2.203125 10.007812 -2.664062 9.796875 -3.105469 C 9.609375 -3.441406 9.417969 -3.777344 9.273438 -4.113281 C 9 -4.65625 8.746094 -5.246094 8.476562 -5.789062 C 8.203125 -6.378906 7.910156 -6.945312 7.613281 -7.511719 C 7.511719 -7.71875 7.488281 -7.949219 7.613281 -8.179688 C 7.65625 -8.285156 7.71875 -8.410156 7.78125 -8.515625 C 7.972656 -8.875 8.160156 -9.230469 8.328125 -9.609375 C 8.769531 -10.46875 9.167969 -11.371094 9.523438 -12.273438 C 9.566406 -12.355469 9.609375 -12.441406 9.671875 -12.523438 C 9.859375 -12.796875 9.964844 -13.089844 10.027344 -13.40625 C 10.070312 -13.53125 10.070312 -13.636719 10.109375 -13.742188 C 10.152344 -13.84375 10.132812 -13.949219 10.089844 -14.035156 C 10.070312 -14.117188 10.027344 -14.179688 9.984375 -14.265625 C 9.921875 -14.390625 9.796875 -14.472656 9.648438 -14.515625 C 9.542969 -14.539062 9.441406 -14.539062 9.335938 -14.539062 C 9.082031 -14.539062 8.832031 -14.539062 8.601562 -14.515625 C 8.371094 -14.515625 8.140625 -14.515625 7.910156 -14.472656 C 7.53125 -14.433594 7.277344 -14.242188 7.152344 -13.867188 C 7.046875 -13.574219 6.945312 -13.277344 6.816406 -13.007812 C 6.585938 -12.460938 6.378906 -11.9375 6.082031 -11.453125 C 6.042969 -11.410156 6 -11.347656 5.957031 -11.285156 C 5.8125 -11.160156 5.644531 -11.160156 5.539062 -11.347656 C 5.453125 -11.453125 5.390625 -11.578125 5.308594 -11.707031 C 5.140625 -11.976562 4.992188 -12.25 4.867188 -12.566406 C 4.71875 -12.941406 4.574219 -13.339844 4.425781 -13.71875 C 4.34375 -13.90625 4.214844 -14.074219 4.027344 -14.179688 C 3.945312 -14.222656 3.859375 -14.242188 3.777344 -14.285156 C 3.355469 -14.496094 2.914062 -14.640625 2.390625 -14.601562 Z M 2.390625 -14.601562 "/></g></g></g><g fill="#4d3f0a" fill-opacity="0.4"><g transform="translate(92.682792, 253.644162)"><g><path d="M 2.929688 -6.988281 C 3.394531 -6.457031 3.792969 -5.925781 4.195312 -5.457031 C 4.792969 -4.792969 5.390625 -4.195312 6.191406 -3.726562 C 6.988281 -3.261719 7.789062 -2.730469 8.585938 -2.195312 C 8.917969 -2.0625 9.1875 -1.863281 9.519531 -1.730469 C 10.785156 -1.132812 12.113281 -0.53125 13.511719 -0.132812 C 13.910156 -0.0664062 14.3125 0.0664062 14.710938 0.0664062 C 16.175781 0.132812 17.707031 0.132812 19.238281 0.0664062 C 19.835938 0.0664062 20.433594 -0.0664062 21.035156 -0.265625 C 21.367188 -0.398438 21.765625 -0.53125 22.167969 -0.664062 C 22.300781 -0.730469 22.433594 -0.730469 22.566406 -0.730469 C 22.765625 -0.730469 22.964844 -0.730469 23.097656 -0.53125 C 23.230469 -0.464844 23.296875 -0.332031 23.363281 -0.199219 C 23.628906 0.0664062 23.898438 0.199219 24.296875 0.199219 C 24.828125 0.199219 25.359375 0.199219 25.894531 0.265625 C 26.558594 0.398438 27.292969 0.398438 27.957031 0.398438 C 30.285156 0.398438 32.617188 0.398438 34.945312 0.398438 C 35.078125 0.398438 35.210938 0.398438 35.347656 0.332031 C 35.546875 0.265625 35.679688 0.199219 35.878906 0.132812 C 36.078125 0 36.078125 -0.464844 35.945312 -0.597656 C 35.679688 -0.796875 35.480469 -0.933594 35.210938 -1 C 34.613281 -1.332031 33.949219 -1.597656 33.347656 -1.863281 C 32.882812 -2.128906 32.617188 -2.464844 32.550781 -2.996094 C 32.484375 -3.0625 32.484375 -3.128906 32.484375 -3.195312 C 32.484375 -3.726562 32.417969 -4.261719 32.417969 -4.792969 C 32.417969 -10.316406 32.484375 -15.777344 32.484375 -21.234375 C 32.484375 -21.832031 32.484375 -22.433594 32.617188 -23.03125 C 32.683594 -23.898438 32.683594 -24.695312 32.550781 -25.496094 C 32.484375 -25.828125 32.484375 -26.160156 32.484375 -26.492188 C 32.417969 -29.554688 32.351562 -32.550781 32.351562 -35.546875 C 32.285156 -37.609375 32.351562 -39.605469 32.417969 -41.667969 C 32.484375 -42.667969 32.683594 -43.601562 32.816406 -44.53125 C 32.882812 -44.730469 33.015625 -44.863281 33.214844 -44.996094 C 33.347656 -45.132812 33.546875 -45.199219 33.75 -45.265625 C 34.28125 -45.53125 34.878906 -45.664062 35.480469 -45.863281 C 35.613281 -45.929688 35.746094 -45.996094 35.8125 -46.0625 C 35.945312 -46.128906 36.011719 -46.394531 35.945312 -46.59375 C 35.8125 -46.726562 35.613281 -46.863281 35.414062 -46.929688 C 35.210938 -46.929688 35.011719 -46.996094 34.8125 -46.996094 C 31.417969 -46.996094 27.957031 -46.996094 24.5625 -46.996094 C 24.429688 -46.996094 24.296875 -46.929688 24.164062 -46.929688 C 23.628906 -46.929688 23.097656 -46.394531 23.03125 -45.929688 C 22.964844 -44.863281 22.964844 -43.867188 23.097656 -42.800781 C 23.164062 -42.203125 23.230469 -41.601562 23.230469 -41.003906 C 23.363281 -38.273438 23.363281 -35.546875 23.296875 -32.816406 C 23.296875 -32.683594 23.296875 -32.550781 23.296875 -32.417969 C 23.296875 -32.21875 23.03125 -32.019531 22.832031 -32.085938 C 22.5 -32.21875 22.167969 -32.285156 21.898438 -32.417969 C 21.300781 -32.683594 20.703125 -32.816406 20.101562 -32.816406 C 19.304688 -32.882812 18.4375 -32.882812 17.640625 -32.816406 C 17.039062 -32.816406 16.441406 -32.75 15.84375 -32.617188 C 15.308594 -32.484375 14.777344 -32.351562 14.246094 -32.21875 C 13.445312 -32.085938 11.914062 -31.617188 11.316406 -31.351562 C 10.648438 -31.085938 10.050781 -30.820312 9.386719 -30.554688 C 7.921875 -29.886719 7.921875 -29.886719 6.789062 -28.957031 C 6.324219 -28.554688 5.925781 -28.15625 5.457031 -27.757812 C 4.59375 -27.023438 3.992188 -26.09375 3.394531 -25.160156 C 2.996094 -24.496094 2.730469 -23.695312 2.394531 -22.964844 C 2.195312 -22.566406 2.128906 -22.167969 1.996094 -21.765625 C 1.664062 -20.902344 1.53125 -19.902344 1.265625 -19.039062 C 1.199219 -18.769531 1.132812 -18.503906 1.132812 -18.238281 C 1.132812 -17.574219 1.066406 -16.972656 1.066406 -16.375 C 1.066406 -15.042969 1.132812 -13.777344 1.132812 -12.515625 C 1.199219 -11.515625 1.597656 -10.648438 1.664062 -9.652344 C 1.664062 -9.519531 1.796875 -9.386719 1.796875 -9.320312 C 2.128906 -8.519531 2.53125 -7.789062 2.929688 -6.988281 Z M 23.296875 -16.839844 C 23.296875 -13.378906 23.296875 -9.917969 23.296875 -6.390625 C 23.296875 -5.992188 23.296875 -5.589844 23.296875 -5.191406 C 23.296875 -4.859375 22.898438 -4.527344 22.632812 -4.460938 C 21.898438 -4.460938 21.101562 -4.460938 20.367188 -4.460938 C 20.300781 -4.460938 20.234375 -4.460938 20.167969 -4.527344 C 19.570312 -4.726562 18.835938 -4.792969 18.238281 -5.125 C 17.773438 -5.324219 17.308594 -5.457031 16.90625 -5.65625 C 16.773438 -5.722656 16.640625 -5.792969 16.507812 -5.859375 C 15.910156 -6.257812 15.308594 -6.722656 14.710938 -7.1875 C 14.511719 -7.390625 14.3125 -7.589844 14.179688 -7.789062 C 13.445312 -8.71875 12.714844 -9.585938 12.113281 -10.582031 C 11.648438 -11.382812 11.25 -12.179688 10.984375 -13.046875 C 10.648438 -14.046875 10.316406 -15.109375 10.050781 -16.175781 C 9.851562 -17.105469 9.785156 -18.039062 10.050781 -18.972656 C 10.183594 -19.304688 10.25 -19.636719 10.25 -19.96875 C 10.316406 -20.769531 10.515625 -21.433594 10.648438 -22.234375 C 10.648438 -22.433594 10.71875 -22.632812 10.785156 -22.832031 C 11.050781 -23.363281 10.984375 -24.03125 11.25 -24.5625 C 11.449219 -25.496094 11.980469 -26.226562 12.449219 -26.957031 C 12.914062 -27.558594 13.378906 -28.089844 13.980469 -28.621094 C 14.445312 -28.957031 14.910156 -29.15625 15.441406 -29.355469 C 15.574219 -29.421875 15.710938 -29.421875 15.84375 -29.488281 C 16.574219 -29.488281 17.308594 -29.621094 18.039062 -29.6875 C 19.105469 -29.820312 20.101562 -29.820312 21.101562 -29.753906 C 21.699219 -29.6875 22.234375 -29.554688 22.699219 -29.355469 C 22.964844 -29.289062 23.296875 -28.890625 23.296875 -28.554688 C 23.296875 -28.289062 23.296875 -28.023438 23.296875 -27.757812 C 23.296875 -26.625 23.296875 -25.5625 23.230469 -24.429688 C 23.230469 -21.898438 23.164062 -19.371094 23.296875 -16.839844 Z M 23.296875 -16.839844 "/></g></g></g><g fill="#4d3f0a" fill-opacity="0.4"><g transform="translate(130.013679, 253.644162)"><g><path d="M 22.097656 -33.082031 C 21.566406 -33.082031 21.035156 -33.082031 20.503906 -33.148438 C 19.703125 -33.148438 18.972656 -33.082031 18.238281 -32.882812 C 17.441406 -32.75 16.640625 -32.417969 15.84375 -32.351562 C 14.910156 -32.21875 13.980469 -31.882812 13.046875 -31.617188 C 12.316406 -31.417969 11.515625 -31.085938 10.785156 -30.753906 C 9.785156 -30.355469 8.785156 -29.820312 7.988281 -29.089844 C 7.789062 -28.824219 7.457031 -28.621094 7.1875 -28.421875 C 7.054688 -28.289062 6.855469 -28.15625 6.722656 -28.023438 C 6.191406 -27.425781 5.589844 -26.824219 5.125 -26.160156 C 4.726562 -25.695312 4.394531 -25.160156 4.195312 -24.628906 C 3.660156 -23.363281 3.0625 -22.097656 2.796875 -20.769531 C 2.664062 -20.035156 2.53125 -19.304688 2.261719 -18.570312 C 2.128906 -18.039062 2.0625 -17.507812 2.0625 -16.90625 C 2.0625 -15.976562 2.0625 -15.042969 2.0625 -14.046875 C 2.0625 -13.113281 2.128906 -12.179688 2.394531 -11.25 C 2.464844 -10.984375 2.464844 -10.648438 2.53125 -10.449219 C 2.664062 -9.917969 2.796875 -9.320312 2.996094 -8.851562 C 3.859375 -6.789062 5.257812 -5.125 6.988281 -3.726562 C 8.320312 -2.929688 9.652344 -2.0625 11.050781 -1.332031 C 11.449219 -1.132812 11.914062 -0.933594 12.316406 -0.730469 C 13.378906 -0.199219 14.511719 0 15.644531 0.332031 C 16.242188 0.464844 16.90625 0.398438 17.507812 0.464844 C 18.503906 0.464844 19.503906 0.464844 20.570312 0.464844 C 20.902344 0.464844 21.234375 0.398438 21.566406 0.332031 C 23.03125 -0.132812 24.429688 -0.664062 25.761719 -1.265625 C 27.09375 -1.929688 28.289062 -2.664062 29.488281 -3.460938 C 29.6875 -3.660156 29.886719 -3.859375 30.019531 -4.058594 C 30.152344 -4.394531 30.21875 -4.726562 30.019531 -5.058594 C 29.820312 -5.523438 29.289062 -5.722656 28.824219 -5.589844 C 28.757812 -5.589844 28.6875 -5.589844 28.621094 -5.589844 C 27.957031 -5.257812 27.226562 -5.125 26.492188 -4.859375 C 25.828125 -4.59375 25.09375 -4.460938 24.363281 -4.261719 C 24.03125 -4.195312 23.695312 -4.128906 23.363281 -4.128906 C 22.566406 -4.058594 21.832031 -4.195312 21.101562 -4.394531 C 20.234375 -4.59375 19.4375 -4.859375 18.570312 -5.191406 C 18.371094 -5.257812 18.238281 -5.390625 18.039062 -5.457031 C 16.839844 -6.191406 15.84375 -7.121094 14.976562 -8.1875 C 14.3125 -8.984375 13.777344 -9.851562 13.179688 -10.648438 C 13.046875 -10.851562 12.847656 -11.117188 12.78125 -11.382812 C 12.179688 -12.980469 11.582031 -14.578125 11.183594 -16.242188 C 11.183594 -16.375 11.25 -16.507812 11.382812 -16.574219 C 11.515625 -16.640625 11.648438 -16.707031 11.78125 -16.707031 C 12.316406 -16.773438 12.847656 -16.707031 13.378906 -16.90625 C 13.777344 -17.039062 14.179688 -17.039062 14.578125 -17.039062 C 15.777344 -17.039062 16.90625 -17.039062 18.105469 -17.039062 C 19.636719 -17.039062 21.234375 -16.972656 22.832031 -17.039062 C 24.230469 -17.105469 25.695312 -17.105469 27.09375 -17.105469 C 28.15625 -17.105469 29.15625 -17.171875 30.152344 -17.171875 C 30.621094 -17.171875 31.019531 -17.441406 31.21875 -18.039062 C 31.351562 -18.503906 31.484375 -18.972656 31.484375 -19.4375 C 31.484375 -19.96875 31.417969 -20.503906 31.351562 -21.035156 C 31.152344 -21.832031 31.085938 -22.699219 30.820312 -23.429688 C 30.753906 -24.296875 30.488281 -25.027344 30.285156 -25.828125 C 30.152344 -26.492188 29.886719 -27.160156 29.6875 -27.824219 C 29.554688 -28.15625 29.355469 -28.554688 29.023438 -28.824219 C 28.488281 -29.421875 27.890625 -30.019531 27.160156 -30.421875 C 26.558594 -30.820312 25.894531 -31.21875 25.292969 -31.683594 C 25.027344 -31.882812 24.695312 -32.019531 24.429688 -32.152344 C 23.628906 -32.484375 22.898438 -32.75 22.097656 -33.082031 Z M 11.78125 -19.171875 C 11.714844 -19.304688 11.648438 -19.371094 11.515625 -19.503906 C 11.449219 -20.035156 11.515625 -20.570312 11.582031 -21.101562 C 11.78125 -21.832031 11.847656 -22.632812 12.113281 -23.296875 C 12.316406 -23.898438 12.515625 -24.496094 12.648438 -25.09375 C 12.847656 -25.828125 13.246094 -26.425781 13.710938 -27.023438 C 13.980469 -27.359375 14.246094 -27.691406 14.511719 -27.957031 C 14.910156 -28.488281 15.507812 -28.890625 16.109375 -29.222656 C 16.574219 -29.488281 17.105469 -29.6875 17.640625 -29.753906 C 18.304688 -29.886719 18.972656 -30.019531 19.636719 -30.152344 C 20.167969 -30.285156 20.703125 -30.21875 21.234375 -29.953125 C 21.367188 -29.886719 21.5 -29.820312 21.566406 -29.753906 C 22.03125 -29.488281 22.367188 -29.15625 22.632812 -28.757812 C 22.898438 -28.289062 23.03125 -27.757812 23.230469 -27.226562 C 23.296875 -27.160156 23.363281 -26.957031 23.363281 -26.824219 C 23.363281 -26.625 23.429688 -26.425781 23.429688 -26.226562 C 23.429688 -24.628906 23.429688 -22.964844 23.363281 -21.367188 C 23.363281 -20.835938 23.363281 -20.367188 23.230469 -19.902344 C 23.164062 -19.703125 23.097656 -19.503906 22.964844 -19.371094 C 22.898438 -19.304688 22.765625 -19.238281 22.632812 -19.171875 C 22.5 -19.105469 22.367188 -19.105469 22.234375 -19.105469 C 18.972656 -19.105469 15.710938 -19.105469 12.382812 -19.105469 C 12.179688 -19.105469 11.980469 -19.171875 11.78125 -19.171875 Z M 11.78125 -19.171875 "/></g></g></g><g fill="#4d3f0a" fill-opacity="0.4"><g transform="translate(162.553344, 253.644162)"><g><path d="M 5.859375 -5.925781 C 6.125 -5.324219 6.390625 -4.726562 6.65625 -4.058594 C 6.789062 -3.859375 6.921875 -3.59375 7.054688 -3.394531 C 7.390625 -2.996094 7.789062 -2.597656 8.253906 -2.261719 C 9.054688 -1.863281 9.785156 -1.398438 10.582031 -1 C 11.25 -0.664062 11.980469 -0.332031 12.714844 -0.265625 C 13.113281 -0.199219 13.511719 0 13.910156 0 C 14.3125 0.0664062 14.710938 0.0664062 15.109375 0.0664062 C 15.710938 0.0664062 16.242188 0.0664062 16.773438 0.0664062 C 16.972656 0.0664062 17.171875 0.0664062 17.375 0 C 17.972656 -0.132812 18.570312 -0.265625 19.171875 -0.464844 C 20.035156 -0.796875 20.902344 -1.199219 21.699219 -1.730469 C 21.898438 -1.863281 22.03125 -1.996094 22.234375 -2.128906 C 22.566406 -2.464844 22.699219 -2.929688 22.699219 -3.394531 C 22.699219 -3.792969 22.367188 -4.058594 22.097656 -4.128906 C 21.632812 -4.128906 21.234375 -4.128906 20.835938 -4.058594 C 19.96875 -3.992188 19.039062 -3.925781 18.171875 -3.992188 C 17.507812 -4.058594 16.972656 -4.261719 16.507812 -4.726562 C 16.175781 -5.125 15.910156 -5.589844 15.777344 -6.125 C 15.644531 -6.390625 15.644531 -6.722656 15.574219 -6.988281 C 15.308594 -7.855469 15.242188 -8.851562 15.175781 -9.785156 C 15.175781 -10.648438 15.175781 -11.582031 15.042969 -12.449219 C 14.976562 -12.714844 14.976562 -12.980469 14.976562 -13.246094 C 14.976562 -14.445312 14.976562 -15.574219 14.976562 -16.773438 C 14.976562 -17.105469 14.976562 -17.441406 15.042969 -17.773438 C 15.175781 -18.503906 15.175781 -19.238281 15.175781 -20.035156 C 15.175781 -21.566406 15.242188 -23.164062 15.242188 -24.761719 C 15.242188 -26.226562 15.242188 -27.757812 15.242188 -29.222656 C 15.242188 -29.421875 15.242188 -29.621094 15.308594 -29.820312 C 15.375 -29.953125 15.441406 -30.085938 15.574219 -30.152344 C 15.644531 -30.21875 15.84375 -30.21875 15.976562 -30.21875 C 17.441406 -30.285156 18.972656 -30.285156 20.433594 -30.285156 C 20.902344 -30.285156 21.433594 -30.285156 21.898438 -30.285156 C 22.167969 -30.285156 22.566406 -30.621094 22.632812 -30.953125 C 22.632812 -31.21875 22.632812 -31.484375 22.632812 -31.75 C 22.566406 -31.882812 22.300781 -32.152344 22.234375 -32.21875 C 21.964844 -32.21875 21.699219 -32.21875 21.367188 -32.21875 C 19.96875 -32.285156 18.503906 -32.285156 17.105469 -32.285156 C 16.773438 -32.285156 16.441406 -32.285156 16.042969 -32.285156 C 15.644531 -32.285156 15.375 -32.617188 15.375 -33.082031 C 15.375 -33.28125 15.375 -33.546875 15.441406 -33.75 C 15.574219 -34.546875 15.644531 -35.347656 15.441406 -36.144531 C 15.375 -36.410156 15.375 -36.675781 15.375 -37.011719 C 15.375 -38.007812 15.308594 -39.007812 15.308594 -40.070312 C 15.308594 -41.070312 15.308594 -42.070312 15.308594 -43.132812 C 15.308594 -44.066406 15.308594 -45.0625 15.175781 -45.996094 C 15.175781 -46.261719 14.777344 -46.660156 14.511719 -46.660156 C 14.378906 -46.660156 14.246094 -46.660156 14.113281 -46.660156 C 13.445312 -46.660156 12.847656 -46.660156 12.246094 -46.660156 C 10.183594 -46.660156 8.121094 -46.660156 6.125 -46.660156 C 5.324219 -46.660156 4.59375 -46.726562 3.859375 -46.59375 C 3.59375 -46.59375 3.394531 -46.328125 3.460938 -45.996094 C 3.460938 -45.863281 3.59375 -45.796875 3.726562 -45.730469 C 3.925781 -45.53125 4.195312 -45.53125 4.460938 -45.398438 C 4.726562 -45.332031 4.925781 -45.0625 4.925781 -44.796875 C 4.925781 -44.730469 4.925781 -44.664062 4.925781 -44.597656 C 4.925781 -40.804688 4.925781 -36.945312 4.925781 -33.148438 C 4.925781 -33.015625 4.925781 -32.816406 4.859375 -32.75 C 4.792969 -32.617188 4.726562 -32.484375 4.59375 -32.417969 C 4.394531 -32.351562 4.195312 -32.351562 3.992188 -32.351562 C 3.394531 -32.351562 2.730469 -32.417969 2.128906 -32.285156 C 1.863281 -32.285156 1.53125 -31.949219 1.464844 -31.617188 C 1.398438 -31.351562 1.398438 -31.085938 1.464844 -30.820312 C 1.464844 -30.554688 1.730469 -30.285156 1.996094 -30.285156 C 2.664062 -30.21875 3.328125 -30.285156 3.992188 -30.21875 C 4.195312 -30.21875 4.460938 -30.21875 4.59375 -30.152344 C 4.726562 -30.152344 4.859375 -30.019531 4.925781 -29.886719 C 4.992188 -29.6875 4.992188 -29.488281 4.992188 -29.289062 C 4.992188 -28.15625 4.992188 -26.957031 4.992188 -25.828125 C 4.992188 -24.960938 4.992188 -24.164062 4.992188 -23.363281 C 5.058594 -22.433594 5.058594 -21.566406 5.058594 -20.703125 C 5.058594 -19.835938 5.058594 -19.039062 5.058594 -18.238281 C 5.058594 -17.773438 5.058594 -17.242188 5.191406 -16.773438 C 5.324219 -16.109375 5.390625 -15.441406 5.390625 -14.777344 C 5.390625 -13.113281 5.457031 -11.515625 5.457031 -9.851562 C 5.457031 -9.054688 5.523438 -8.1875 5.65625 -7.390625 C 5.792969 -6.921875 5.792969 -6.457031 5.859375 -5.925781 Z M 5.859375 -5.925781 "/></g></g></g><g fill="#4d3f0a" fill-opacity="0.4"><g transform="translate(185.24443, 253.644162)"><g><path d="M 4.058594 -12.648438 C 3.859375 -12.382812 3.726562 -12.113281 3.527344 -11.914062 C 3.128906 -11.316406 2.929688 -10.71875 2.664062 -10.050781 C 2.53125 -9.453125 2.328125 -8.851562 2.195312 -8.253906 C 2.128906 -7.921875 2.0625 -7.589844 2.0625 -7.253906 C 2.0625 -6.855469 2.0625 -6.457031 2.0625 -6.058594 C 2.0625 -4.792969 2.53125 -3.59375 3.128906 -2.53125 C 3.792969 -1.53125 4.660156 -0.796875 5.792969 -0.398438 C 6.855469 -0.0664062 7.921875 0.199219 8.984375 0.199219 C 9.453125 0.199219 9.984375 0.199219 10.449219 0.199219 C 10.785156 0.199219 11.117188 0.132812 11.449219 0.0664062 C 12.113281 -0.0664062 12.78125 -0.332031 13.445312 -0.398438 C 14.246094 -0.730469 15.109375 -0.933594 15.910156 -1.398438 C 16.574219 -1.863281 17.308594 -2.195312 18.039062 -2.597656 C 18.371094 -2.796875 18.703125 -3.0625 19.039062 -3.328125 C 19.105469 -3.328125 19.171875 -3.328125 19.238281 -3.328125 C 19.4375 -3.0625 19.570312 -2.730469 19.769531 -2.464844 C 19.835938 -2.261719 19.96875 -2.0625 20.101562 -1.929688 C 20.570312 -1.464844 21.035156 -1 21.632812 -0.597656 C 21.832031 -0.53125 22.03125 -0.398438 22.234375 -0.332031 C 22.566406 -0.265625 22.964844 -0.132812 23.363281 0 C 23.898438 0.132812 24.429688 0.265625 24.960938 0.332031 C 25.359375 0.398438 25.828125 0.398438 26.226562 0.398438 C 27.359375 0.265625 28.488281 0 29.554688 -0.464844 C 29.886719 -0.597656 30.152344 -0.867188 30.285156 -1.199219 C 30.355469 -1.464844 30.285156 -1.929688 30.019531 -2.128906 C 29.820312 -2.195312 29.621094 -2.261719 29.488281 -2.394531 C 28.957031 -2.597656 28.621094 -3.0625 28.355469 -3.527344 C 28.222656 -3.925781 28.15625 -4.328125 28.15625 -4.726562 C 28.15625 -6.457031 28.15625 -8.1875 28.15625 -9.851562 C 28.15625 -10.851562 28.089844 -11.78125 28.289062 -12.714844 C 28.355469 -12.980469 28.289062 -13.3125 28.355469 -13.578125 C 28.355469 -14.84375 28.421875 -16.175781 28.421875 -17.441406 C 28.488281 -19.105469 28.421875 -20.703125 28.421875 -22.367188 C 28.421875 -23.296875 28.289062 -24.296875 28.089844 -25.226562 C 27.957031 -25.695312 27.824219 -26.09375 27.625 -26.558594 C 27.292969 -27.359375 26.757812 -28.089844 26.160156 -28.757812 C 25.828125 -29.023438 25.5625 -29.355469 25.292969 -29.621094 C 24.496094 -30.421875 23.628906 -31.019531 22.699219 -31.617188 C 22.5 -31.75 22.300781 -31.816406 22.167969 -31.882812 C 21.765625 -32.019531 21.367188 -32.152344 20.96875 -32.351562 C 20.300781 -32.683594 19.570312 -32.882812 18.90625 -33.082031 C 18.238281 -33.082031 17.640625 -33.148438 17.039062 -33.148438 C 16.707031 -33.214844 16.375 -33.214844 15.976562 -33.214844 C 15.308594 -33.214844 14.644531 -33.082031 13.980469 -32.882812 C 12.78125 -32.484375 11.515625 -32.085938 10.316406 -31.617188 C 9.320312 -31.417969 8.386719 -30.886719 7.523438 -30.355469 C 7.121094 -30.085938 6.789062 -29.753906 6.457031 -29.421875 C 5.792969 -28.824219 5.191406 -28.15625 4.792969 -27.359375 C 4.527344 -26.890625 4.261719 -26.425781 3.992188 -25.960938 C 3.726562 -25.5625 3.726562 -25.160156 3.726562 -24.761719 C 3.792969 -24.5625 3.859375 -24.363281 4.058594 -24.230469 C 4.328125 -24.03125 4.925781 -24.03125 5.191406 -24.230469 C 5.257812 -24.296875 5.324219 -24.296875 5.324219 -24.363281 C 5.589844 -24.894531 5.792969 -25.359375 6.058594 -25.828125 C 6.722656 -27.09375 7.589844 -28.15625 8.71875 -28.890625 C 9.386719 -29.421875 10.117188 -29.753906 10.917969 -29.953125 C 11.449219 -30.152344 11.980469 -30.21875 12.515625 -30.21875 C 13.046875 -30.21875 13.644531 -30.21875 14.179688 -30.21875 C 14.378906 -30.21875 14.578125 -30.21875 14.777344 -30.085938 C 15.507812 -29.820312 16.242188 -29.355469 16.839844 -28.824219 C 17.308594 -28.488281 17.640625 -28.089844 17.839844 -27.558594 C 17.90625 -27.292969 18.039062 -27.023438 18.105469 -26.757812 C 18.171875 -26.292969 18.371094 -25.828125 18.4375 -25.359375 C 18.570312 -24.828125 18.570312 -24.296875 18.636719 -23.761719 C 18.636719 -23.363281 18.703125 -22.964844 18.769531 -22.566406 C 18.835938 -22.097656 18.835938 -21.699219 18.835938 -21.300781 C 18.90625 -20.234375 18.769531 -19.105469 18.636719 -18.039062 C 18.636719 -17.773438 18.371094 -17.507812 18.105469 -17.507812 C 16.773438 -17.574219 15.375 -17.574219 14.046875 -17.507812 C 13.644531 -17.507812 13.246094 -17.441406 12.847656 -17.375 C 12.648438 -17.308594 12.449219 -17.242188 12.246094 -17.171875 C 11.515625 -17.105469 10.917969 -16.90625 10.25 -16.707031 C 8.917969 -16.308594 7.722656 -15.644531 6.589844 -14.910156 C 6.191406 -14.644531 5.792969 -14.378906 5.457031 -14.046875 C 4.992188 -13.578125 4.460938 -13.113281 4.058594 -12.648438 Z M 18.835938 -10.515625 C 18.90625 -10.25 18.90625 -9.851562 18.972656 -9.386719 C 18.972656 -8.71875 19.039062 -8.054688 18.90625 -7.390625 C 18.90625 -7.1875 18.769531 -6.988281 18.570312 -6.855469 C 18.238281 -6.65625 17.90625 -6.457031 17.507812 -6.324219 C 17.242188 -6.257812 16.972656 -6.125 16.707031 -6.125 C 15.777344 -5.992188 14.84375 -5.992188 13.84375 -5.792969 C 13.644531 -5.722656 13.445312 -5.722656 13.246094 -5.722656 C 12.515625 -5.722656 11.78125 -5.925781 11.117188 -6.257812 C 10.785156 -6.457031 10.515625 -6.65625 10.316406 -6.921875 C 9.917969 -7.457031 9.585938 -7.921875 9.453125 -8.519531 C 9.054688 -9.453125 9.121094 -10.382812 9.1875 -11.382812 C 9.1875 -11.582031 9.320312 -11.78125 9.386719 -11.980469 C 9.453125 -12.179688 9.585938 -12.449219 9.71875 -12.714844 C 9.984375 -13.3125 10.382812 -13.710938 11.050781 -13.84375 C 11.847656 -14.113281 12.582031 -14.378906 13.378906 -14.578125 C 14.3125 -14.777344 15.308594 -14.644531 16.242188 -14.644531 C 16.839844 -14.644531 17.375 -14.644531 17.90625 -14.578125 C 18.039062 -14.578125 18.171875 -14.511719 18.304688 -14.511719 C 18.503906 -14.511719 18.769531 -14.113281 18.835938 -13.910156 C 18.835938 -13.710938 18.835938 -13.511719 18.835938 -13.3125 C 18.835938 -12.449219 18.835938 -11.515625 18.835938 -10.515625 Z M 18.835938 -10.515625 "/></g></g></g><g fill="#4d3f0a" fill-opacity="0.4"><g transform="translate(216.785946, 253.644162)"><g><path d="M 14.644531 -27.691406 C 14.578125 -27.691406 14.578125 -27.691406 14.578125 -27.691406 C 14.644531 -30.820312 14.644531 -34.015625 14.710938 -37.144531 C 14.710938 -39.605469 14.710938 -42.070312 14.710938 -44.53125 C 14.710938 -44.929688 14.710938 -45.332031 14.644531 -45.730469 C 14.578125 -45.996094 14.445312 -46.261719 14.179688 -46.394531 C 13.910156 -46.527344 13.710938 -46.660156 13.378906 -46.660156 C 13.3125 -46.660156 13.246094 -46.660156 13.179688 -46.660156 C 10.382812 -46.660156 7.589844 -46.660156 4.792969 -46.660156 C 4.59375 -46.660156 4.394531 -46.660156 4.195312 -46.59375 C 3.925781 -46.59375 3.660156 -46.460938 3.394531 -46.328125 C 3.394531 -46.261719 3.328125 -46.195312 3.261719 -46.195312 C 3.128906 -46.0625 3.195312 -45.796875 3.261719 -45.664062 C 3.527344 -45.398438 3.859375 -45.332031 4.195312 -45.132812 C 4.460938 -44.929688 4.726562 -44.730469 4.792969 -44.332031 C 4.992188 -43.800781 5.191406 -43.199219 5.257812 -42.601562 C 5.257812 -42.136719 5.324219 -41.734375 5.390625 -41.335938 C 5.457031 -40.9375 5.457031 -40.539062 5.457031 -40.136719 C 5.457031 -39.671875 5.457031 -39.140625 5.457031 -38.675781 C 5.523438 -32.617188 5.523438 -26.492188 5.523438 -20.433594 C 5.523438 -19.371094 5.589844 -18.238281 5.589844 -17.171875 C 5.523438 -15.507812 5.523438 -13.84375 5.457031 -12.246094 C 5.457031 -11.25 5.457031 -10.316406 5.324219 -9.386719 C 5.257812 -8.984375 5.257812 -8.519531 5.257812 -8.121094 C 5.257812 -7.1875 5.257812 -6.257812 5.257812 -5.257812 C 5.257812 -4.792969 5.257812 -4.328125 5.125 -3.859375 C 5.125 -3.59375 4.992188 -3.328125 4.859375 -3.128906 C 4.792969 -3.0625 4.726562 -2.996094 4.726562 -2.929688 C 4.261719 -2.328125 3.59375 -1.863281 2.863281 -1.664062 C 2.664062 -1.53125 2.394531 -1.464844 2.128906 -1.398438 C 1.929688 -1.332031 1.796875 -1.199219 1.664062 -1 C 1.464844 -0.796875 1.53125 -0.464844 1.730469 -0.265625 C 1.996094 -0.132812 2.195312 0 2.464844 0 C 2.730469 0 3.0625 0 3.328125 0 C 5.523438 0.0664062 7.65625 0.0664062 9.851562 0 C 11.050781 0 12.179688 0 13.378906 0 C 13.980469 0 14.578125 0.0664062 15.175781 -0.0664062 C 15.910156 -0.265625 16.574219 -0.199219 17.242188 -0.199219 C 17.574219 -0.199219 17.90625 -0.199219 18.238281 -0.265625 C 18.304688 -0.332031 18.371094 -0.332031 18.4375 -0.398438 C 18.503906 -0.53125 18.503906 -0.664062 18.4375 -0.796875 C 18.304688 -0.933594 18.171875 -1.066406 17.972656 -1.199219 C 17.574219 -1.464844 17.171875 -1.730469 16.773438 -1.996094 C 16.441406 -2.195312 16.109375 -2.464844 15.777344 -2.730469 C 15.644531 -2.863281 15.507812 -2.996094 15.441406 -3.195312 C 15.175781 -3.59375 14.976562 -4.058594 14.976562 -4.527344 C 14.976562 -5.390625 14.976562 -6.191406 14.910156 -6.988281 C 14.910156 -7.789062 14.910156 -8.519531 14.710938 -9.253906 C 14.644531 -9.785156 14.578125 -10.316406 14.578125 -10.851562 C 14.578125 -11.582031 14.578125 -12.246094 14.578125 -12.914062 C 14.511719 -15.441406 14.445312 -17.972656 14.511719 -20.503906 C 14.578125 -22.898438 14.578125 -25.292969 14.644531 -27.691406 Z M 14.644531 -27.691406 "/></g></g></g><g fill="#4d3f0a" fill-opacity="0.4"><g transform="translate(235.684008, 253.644162)"><g><path d="M 14.644531 -27.691406 C 14.578125 -27.691406 14.578125 -27.691406 14.578125 -27.691406 C 14.644531 -30.820312 14.644531 -34.015625 14.710938 -37.144531 C 14.710938 -39.605469 14.710938 -42.070312 14.710938 -44.53125 C 14.710938 -44.929688 14.710938 -45.332031 14.644531 -45.730469 C 14.578125 -45.996094 14.445312 -46.261719 14.179688 -46.394531 C 13.910156 -46.527344 13.710938 -46.660156 13.378906 -46.660156 C 13.3125 -46.660156 13.246094 -46.660156 13.179688 -46.660156 C 10.382812 -46.660156 7.589844 -46.660156 4.792969 -46.660156 C 4.59375 -46.660156 4.394531 -46.660156 4.195312 -46.59375 C 3.925781 -46.59375 3.660156 -46.460938 3.394531 -46.328125 C 3.394531 -46.261719 3.328125 -46.195312 3.261719 -46.195312 C 3.128906 -46.0625 3.195312 -45.796875 3.261719 -45.664062 C 3.527344 -45.398438 3.859375 -45.332031 4.195312 -45.132812 C 4.460938 -44.929688 4.726562 -44.730469 4.792969 -44.332031 C 4.992188 -43.800781 5.191406 -43.199219 5.257812 -42.601562 C 5.257812 -42.136719 5.324219 -41.734375 5.390625 -41.335938 C 5.457031 -40.9375 5.457031 -40.539062 5.457031 -40.136719 C 5.457031 -39.671875 5.457031 -39.140625 5.457031 -38.675781 C 5.523438 -32.617188 5.523438 -26.492188 5.523438 -20.433594 C 5.523438 -19.371094 5.589844 -18.238281 5.589844 -17.171875 C 5.523438 -15.507812 5.523438 -13.84375 5.457031 -12.246094 C 5.457031 -11.25 5.457031 -10.316406 5.324219 -9.386719 C 5.257812 -8.984375 5.257812 -8.519531 5.257812 -8.121094 C 5.257812 -7.1875 5.257812 -6.257812 5.257812 -5.257812 C 5.257812 -4.792969 5.257812 -4.328125 5.125 -3.859375 C 5.125 -3.59375 4.992188 -3.328125 4.859375 -3.128906 C 4.792969 -3.0625 4.726562 -2.996094 4.726562 -2.929688 C 4.261719 -2.328125 3.59375 -1.863281 2.863281 -1.664062 C 2.664062 -1.53125 2.394531 -1.464844 2.128906 -1.398438 C 1.929688 -1.332031 1.796875 -1.199219 1.664062 -1 C 1.464844 -0.796875 1.53125 -0.464844 1.730469 -0.265625 C 1.996094 -0.132812 2.195312 0 2.464844 0 C 2.730469 0 3.0625 0 3.328125 0 C 5.523438 0.0664062 7.65625 0.0664062 9.851562 0 C 11.050781 0 12.179688 0 13.378906 0 C 13.980469 0 14.578125 0.0664062 15.175781 -0.0664062 C 15.910156 -0.265625 16.574219 -0.199219 17.242188 -0.199219 C 17.574219 -0.199219 17.90625 -0.199219 18.238281 -0.265625 C 18.304688 -0.332031 18.371094 -0.332031 18.4375 -0.398438 C 18.503906 -0.53125 18.503906 -0.664062 18.4375 -0.796875 C 18.304688 -0.933594 18.171875 -1.066406 17.972656 -1.199219 C 17.574219 -1.464844 17.171875 -1.730469 16.773438 -1.996094 C 16.441406 -2.195312 16.109375 -2.464844 15.777344 -2.730469 C 15.644531 -2.863281 15.507812 -2.996094 15.441406 -3.195312 C 15.175781 -3.59375 14.976562 -4.058594 14.976562 -4.527344 C 14.976562 -5.390625 14.976562 -6.191406 14.910156 -6.988281 C 14.910156 -7.789062 14.910156 -8.519531 14.710938 -9.253906 C 14.644531 -9.785156 14.578125 -10.316406 14.578125 -10.851562 C 14.578125 -11.582031 14.578125 -12.246094 14.578125 -12.914062 C 14.511719 -15.441406 14.445312 -17.972656 14.511719 -20.503906 C 14.578125 -22.898438 14.578125 -25.292969 14.644531 -27.691406 Z M 14.644531 -27.691406 "/></g></g></g><g fill="#4d3f0a" fill-opacity="0.4"><g transform="translate(254.582069, 253.644162)"><g><path d="M 22.097656 -33.082031 C 21.566406 -33.082031 21.035156 -33.082031 20.503906 -33.148438 C 19.703125 -33.148438 18.972656 -33.082031 18.238281 -32.882812 C 17.441406 -32.75 16.640625 -32.417969 15.84375 -32.351562 C 14.910156 -32.21875 13.980469 -31.882812 13.046875 -31.617188 C 12.316406 -31.417969 11.515625 -31.085938 10.785156 -30.753906 C 9.785156 -30.355469 8.785156 -29.820312 7.988281 -29.089844 C 7.789062 -28.824219 7.457031 -28.621094 7.1875 -28.421875 C 7.054688 -28.289062 6.855469 -28.15625 6.722656 -28.023438 C 6.191406 -27.425781 5.589844 -26.824219 5.125 -26.160156 C 4.726562 -25.695312 4.394531 -25.160156 4.195312 -24.628906 C 3.660156 -23.363281 3.0625 -22.097656 2.796875 -20.769531 C 2.664062 -20.035156 2.53125 -19.304688 2.261719 -18.570312 C 2.128906 -18.039062 2.0625 -17.507812 2.0625 -16.90625 C 2.0625 -15.976562 2.0625 -15.042969 2.0625 -14.046875 C 2.0625 -13.113281 2.128906 -12.179688 2.394531 -11.25 C 2.464844 -10.984375 2.464844 -10.648438 2.53125 -10.449219 C 2.664062 -9.917969 2.796875 -9.320312 2.996094 -8.851562 C 3.859375 -6.789062 5.257812 -5.125 6.988281 -3.726562 C 8.320312 -2.929688 9.652344 -2.0625 11.050781 -1.332031 C 11.449219 -1.132812 11.914062 -0.933594 12.316406 -0.730469 C 13.378906 -0.199219 14.511719 0 15.644531 0.332031 C 16.242188 0.464844 16.90625 0.398438 17.507812 0.464844 C 18.503906 0.464844 19.503906 0.464844 20.570312 0.464844 C 20.902344 0.464844 21.234375 0.398438 21.566406 0.332031 C 23.03125 -0.132812 24.429688 -0.664062 25.761719 -1.265625 C 27.09375 -1.929688 28.289062 -2.664062 29.488281 -3.460938 C 29.6875 -3.660156 29.886719 -3.859375 30.019531 -4.058594 C 30.152344 -4.394531 30.21875 -4.726562 30.019531 -5.058594 C 29.820312 -5.523438 29.289062 -5.722656 28.824219 -5.589844 C 28.757812 -5.589844 28.6875 -5.589844 28.621094 -5.589844 C 27.957031 -5.257812 27.226562 -5.125 26.492188 -4.859375 C 25.828125 -4.59375 25.09375 -4.460938 24.363281 -4.261719 C 24.03125 -4.195312 23.695312 -4.128906 23.363281 -4.128906 C 22.566406 -4.058594 21.832031 -4.195312 21.101562 -4.394531 C 20.234375 -4.59375 19.4375 -4.859375 18.570312 -5.191406 C 18.371094 -5.257812 18.238281 -5.390625 18.039062 -5.457031 C 16.839844 -6.191406 15.84375 -7.121094 14.976562 -8.1875 C 14.3125 -8.984375 13.777344 -9.851562 13.179688 -10.648438 C 13.046875 -10.851562 12.847656 -11.117188 12.78125 -11.382812 C 12.179688 -12.980469 11.582031 -14.578125 11.183594 -16.242188 C 11.183594 -16.375 11.25 -16.507812 11.382812 -16.574219 C 11.515625 -16.640625 11.648438 -16.707031 11.78125 -16.707031 C 12.316406 -16.773438 12.847656 -16.707031 13.378906 -16.90625 C 13.777344 -17.039062 14.179688 -17.039062 14.578125 -17.039062 C 15.777344 -17.039062 16.90625 -17.039062 18.105469 -17.039062 C 19.636719 -17.039062 21.234375 -16.972656 22.832031 -17.039062 C 24.230469 -17.105469 25.695312 -17.105469 27.09375 -17.105469 C 28.15625 -17.105469 29.15625 -17.171875 30.152344 -17.171875 C 30.621094 -17.171875 31.019531 -17.441406 31.21875 -18.039062 C 31.351562 -18.503906 31.484375 -18.972656 31.484375 -19.4375 C 31.484375 -19.96875 31.417969 -20.503906 31.351562 -21.035156 C 31.152344 -21.832031 31.085938 -22.699219 30.820312 -23.429688 C 30.753906 -24.296875 30.488281 -25.027344 30.285156 -25.828125 C 30.152344 -26.492188 29.886719 -27.160156 29.6875 -27.824219 C 29.554688 -28.15625 29.355469 -28.554688 29.023438 -28.824219 C 28.488281 -29.421875 27.890625 -30.019531 27.160156 -30.421875 C 26.558594 -30.820312 25.894531 -31.21875 25.292969 -31.683594 C 25.027344 -31.882812 24.695312 -32.019531 24.429688 -32.152344 C 23.628906 -32.484375 22.898438 -32.75 22.097656 -33.082031 Z M 11.78125 -19.171875 C 11.714844 -19.304688 11.648438 -19.371094 11.515625 -19.503906 C 11.449219 -20.035156 11.515625 -20.570312 11.582031 -21.101562 C 11.78125 -21.832031 11.847656 -22.632812 12.113281 -23.296875 C 12.316406 -23.898438 12.515625 -24.496094 12.648438 -25.09375 C 12.847656 -25.828125 13.246094 -26.425781 13.710938 -27.023438 C 13.980469 -27.359375 14.246094 -27.691406 14.511719 -27.957031 C 14.910156 -28.488281 15.507812 -28.890625 16.109375 -29.222656 C 16.574219 -29.488281 17.105469 -29.6875 17.640625 -29.753906 C 18.304688 -29.886719 18.972656 -30.019531 19.636719 -30.152344 C 20.167969 -30.285156 20.703125 -30.21875 21.234375 -29.953125 C 21.367188 -29.886719 21.5 -29.820312 21.566406 -29.753906 C 22.03125 -29.488281 22.367188 -29.15625 22.632812 -28.757812 C 22.898438 -28.289062 23.03125 -27.757812 23.230469 -27.226562 C 23.296875 -27.160156 23.363281 -26.957031 23.363281 -26.824219 C 23.363281 -26.625 23.429688 -26.425781 23.429688 -26.226562 C 23.429688 -24.628906 23.429688 -22.964844 23.363281 -21.367188 C 23.363281 -20.835938 23.363281 -20.367188 23.230469 -19.902344 C 23.164062 -19.703125 23.097656 -19.503906 22.964844 -19.371094 C 22.898438 -19.304688 22.765625 -19.238281 22.632812 -19.171875 C 22.5 -19.105469 22.367188 -19.105469 22.234375 -19.105469 C 18.972656 -19.105469 15.710938 -19.105469 12.382812 -19.105469 C 12.179688 -19.105469 11.980469 -19.171875 11.78125 -19.171875 Z M 11.78125 -19.171875 "/></g></g></g><g fill="#372a28" fill-opacity="1"><g transform="translate(89.740105, 250.701481)"><g><path d="M 2.929688 -6.988281 C 3.394531 -6.457031 3.792969 -5.925781 4.195312 -5.457031 C 4.792969 -4.792969 5.390625 -4.195312 6.191406 -3.726562 C 6.988281 -3.261719 7.789062 -2.730469 8.585938 -2.195312 C 8.917969 -2.0625 9.1875 -1.863281 9.519531 -1.730469 C 10.785156 -1.132812 12.113281 -0.53125 13.511719 -0.132812 C 13.910156 -0.0664062 14.3125 0.0664062 14.710938 0.0664062 C 16.175781 0.132812 17.707031 0.132812 19.238281 0.0664062 C 19.835938 0.0664062 20.433594 -0.0664062 21.035156 -0.265625 C 21.367188 -0.398438 21.765625 -0.53125 22.167969 -0.664062 C 22.300781 -0.730469 22.433594 -0.730469 22.566406 -0.730469 C 22.765625 -0.730469 22.964844 -0.730469 23.097656 -0.53125 C 23.230469 -0.464844 23.296875 -0.332031 23.363281 -0.199219 C 23.628906 0.0664062 23.898438 0.199219 24.296875 0.199219 C 24.828125 0.199219 25.359375 0.199219 25.894531 0.265625 C 26.558594 0.398438 27.292969 0.398438 27.957031 0.398438 C 30.285156 0.398438 32.617188 0.398438 34.945312 0.398438 C 35.078125 0.398438 35.210938 0.398438 35.347656 0.332031 C 35.546875 0.265625 35.679688 0.199219 35.878906 0.132812 C 36.078125 0 36.078125 -0.464844 35.945312 -0.597656 C 35.679688 -0.796875 35.480469 -0.933594 35.210938 -1 C 34.613281 -1.332031 33.949219 -1.597656 33.347656 -1.863281 C 32.882812 -2.128906 32.617188 -2.464844 32.550781 -2.996094 C 32.484375 -3.0625 32.484375 -3.128906 32.484375 -3.195312 C 32.484375 -3.726562 32.417969 -4.261719 32.417969 -4.792969 C 32.417969 -10.316406 32.484375 -15.777344 32.484375 -21.234375 C 32.484375 -21.832031 32.484375 -22.433594 32.617188 -23.03125 C 32.683594 -23.898438 32.683594 -24.695312 32.550781 -25.496094 C 32.484375 -25.828125 32.484375 -26.160156 32.484375 -26.492188 C 32.417969 -29.554688 32.351562 -32.550781 32.351562 -35.546875 C 32.285156 -37.609375 32.351562 -39.605469 32.417969 -41.667969 C 32.484375 -42.667969 32.683594 -43.601562 32.816406 -44.53125 C 32.882812 -44.730469 33.015625 -44.863281 33.214844 -44.996094 C 33.347656 -45.132812 33.546875 -45.199219 33.75 -45.265625 C 34.28125 -45.53125 34.878906 -45.664062 35.480469 -45.863281 C 35.613281 -45.929688 35.746094 -45.996094 35.8125 -46.0625 C 35.945312 -46.128906 36.011719 -46.394531 35.945312 -46.59375 C 35.8125 -46.726562 35.613281 -46.863281 35.414062 -46.929688 C 35.210938 -46.929688 35.011719 -46.996094 34.8125 -46.996094 C 31.417969 -46.996094 27.957031 -46.996094 24.5625 -46.996094 C 24.429688 -46.996094 24.296875 -46.929688 24.164062 -46.929688 C 23.628906 -46.929688 23.097656 -46.394531 23.03125 -45.929688 C 22.964844 -44.863281 22.964844 -43.867188 23.097656 -42.800781 C 23.164062 -42.203125 23.230469 -41.601562 23.230469 -41.003906 C 23.363281 -38.273438 23.363281 -35.546875 23.296875 -32.816406 C 23.296875 -32.683594 23.296875 -32.550781 23.296875 -32.417969 C 23.296875 -32.21875 23.03125 -32.019531 22.832031 -32.085938 C 22.5 -32.21875 22.167969 -32.285156 21.898438 -32.417969 C 21.300781 -32.683594 20.703125 -32.816406 20.101562 -32.816406 C 19.304688 -32.882812 18.4375 -32.882812 17.640625 -32.816406 C 17.039062 -32.816406 16.441406 -32.75 15.84375 -32.617188 C 15.308594 -32.484375 14.777344 -32.351562 14.246094 -32.21875 C 13.445312 -32.085938 11.914062 -31.617188 11.316406 -31.351562 C 10.648438 -31.085938 10.050781 -30.820312 9.386719 -30.554688 C 7.921875 -29.886719 7.921875 -29.886719 6.789062 -28.957031 C 6.324219 -28.554688 5.925781 -28.15625 5.457031 -27.757812 C 4.59375 -27.023438 3.992188 -26.09375 3.394531 -25.160156 C 2.996094 -24.496094 2.730469 -23.695312 2.394531 -22.964844 C 2.195312 -22.566406 2.128906 -22.167969 1.996094 -21.765625 C 1.664062 -20.902344 1.53125 -19.902344 1.265625 -19.039062 C 1.199219 -18.769531 1.132812 -18.503906 1.132812 -18.238281 C 1.132812 -17.574219 1.066406 -16.972656 1.066406 -16.375 C 1.066406 -15.042969 1.132812 -13.777344 1.132812 -12.515625 C 1.199219 -11.515625 1.597656 -10.648438 1.664062 -9.652344 C 1.664062 -9.519531 1.796875 -9.386719 1.796875 -9.320312 C 2.128906 -8.519531 2.53125 -7.789062 2.929688 -6.988281 Z M 23.296875 -16.839844 C 23.296875 -13.378906 23.296875 -9.917969 23.296875 -6.390625 C 23.296875 -5.992188 23.296875 -5.589844 23.296875 -5.191406 C 23.296875 -4.859375 22.898438 -4.527344 22.632812 -4.460938 C 21.898438 -4.460938 21.101562 -4.460938 20.367188 -4.460938 C 20.300781 -4.460938 20.234375 -4.460938 20.167969 -4.527344 C 19.570312 -4.726562 18.835938 -4.792969 18.238281 -5.125 C 17.773438 -5.324219 17.308594 -5.457031 16.90625 -5.65625 C 16.773438 -5.722656 16.640625 -5.792969 16.507812 -5.859375 C 15.910156 -6.257812 15.308594 -6.722656 14.710938 -7.1875 C 14.511719 -7.390625 14.3125 -7.589844 14.179688 -7.789062 C 13.445312 -8.71875 12.714844 -9.585938 12.113281 -10.582031 C 11.648438 -11.382812 11.25 -12.179688 10.984375 -13.046875 C 10.648438 -14.046875 10.316406 -15.109375 10.050781 -16.175781 C 9.851562 -17.105469 9.785156 -18.039062 10.050781 -18.972656 C 10.183594 -19.304688 10.25 -19.636719 10.25 -19.96875 C 10.316406 -20.769531 10.515625 -21.433594 10.648438 -22.234375 C 10.648438 -22.433594 10.71875 -22.632812 10.785156 -22.832031 C 11.050781 -23.363281 10.984375 -24.03125 11.25 -24.5625 C 11.449219 -25.496094 11.980469 -26.226562 12.449219 -26.957031 C 12.914062 -27.558594 13.378906 -28.089844 13.980469 -28.621094 C 14.445312 -28.957031 14.910156 -29.15625 15.441406 -29.355469 C 15.574219 -29.421875 15.710938 -29.421875 15.84375 -29.488281 C 16.574219 -29.488281 17.308594 -29.621094 18.039062 -29.6875 C 19.105469 -29.820312 20.101562 -29.820312 21.101562 -29.753906 C 21.699219 -29.6875 22.234375 -29.554688 22.699219 -29.355469 C 22.964844 -29.289062 23.296875 -28.890625 23.296875 -28.554688 C 23.296875 -28.289062 23.296875 -28.023438 23.296875 -27.757812 C 23.296875 -26.625 23.296875 -25.5625 23.230469 -24.429688 C 23.230469 -21.898438 23.164062 -19.371094 23.296875 -16.839844 Z M 23.296875 -16.839844 "/></g></g></g><g fill="#372a28" fill-opacity="1"><g transform="translate(127.070991, 250.701481)"><g><path d="M 22.097656 -33.082031 C 21.566406 -33.082031 21.035156 -33.082031 20.503906 -33.148438 C 19.703125 -33.148438 18.972656 -33.082031 18.238281 -32.882812 C 17.441406 -32.75 16.640625 -32.417969 15.84375 -32.351562 C 14.910156 -32.21875 13.980469 -31.882812 13.046875 -31.617188 C 12.316406 -31.417969 11.515625 -31.085938 10.785156 -30.753906 C 9.785156 -30.355469 8.785156 -29.820312 7.988281 -29.089844 C 7.789062 -28.824219 7.457031 -28.621094 7.1875 -28.421875 C 7.054688 -28.289062 6.855469 -28.15625 6.722656 -28.023438 C 6.191406 -27.425781 5.589844 -26.824219 5.125 -26.160156 C 4.726562 -25.695312 4.394531 -25.160156 4.195312 -24.628906 C 3.660156 -23.363281 3.0625 -22.097656 2.796875 -20.769531 C 2.664062 -20.035156 2.53125 -19.304688 2.261719 -18.570312 C 2.128906 -18.039062 2.0625 -17.507812 2.0625 -16.90625 C 2.0625 -15.976562 2.0625 -15.042969 2.0625 -14.046875 C 2.0625 -13.113281 2.128906 -12.179688 2.394531 -11.25 C 2.464844 -10.984375 2.464844 -10.648438 2.53125 -10.449219 C 2.664062 -9.917969 2.796875 -9.320312 2.996094 -8.851562 C 3.859375 -6.789062 5.257812 -5.125 6.988281 -3.726562 C 8.320312 -2.929688 9.652344 -2.0625 11.050781 -1.332031 C 11.449219 -1.132812 11.914062 -0.933594 12.316406 -0.730469 C 13.378906 -0.199219 14.511719 0 15.644531 0.332031 C 16.242188 0.464844 16.90625 0.398438 17.507812 0.464844 C 18.503906 0.464844 19.503906 0.464844 20.570312 0.464844 C 20.902344 0.464844 21.234375 0.398438 21.566406 0.332031 C 23.03125 -0.132812 24.429688 -0.664062 25.761719 -1.265625 C 27.09375 -1.929688 28.289062 -2.664062 29.488281 -3.460938 C 29.6875 -3.660156 29.886719 -3.859375 30.019531 -4.058594 C 30.152344 -4.394531 30.21875 -4.726562 30.019531 -5.058594 C 29.820312 -5.523438 29.289062 -5.722656 28.824219 -5.589844 C 28.757812 -5.589844 28.6875 -5.589844 28.621094 -5.589844 C 27.957031 -5.257812 27.226562 -5.125 26.492188 -4.859375 C 25.828125 -4.59375 25.09375 -4.460938 24.363281 -4.261719 C 24.03125 -4.195312 23.695312 -4.128906 23.363281 -4.128906 C 22.566406 -4.058594 21.832031 -4.195312 21.101562 -4.394531 C 20.234375 -4.59375 19.4375 -4.859375 18.570312 -5.191406 C 18.371094 -5.257812 18.238281 -5.390625 18.039062 -5.457031 C 16.839844 -6.191406 15.84375 -7.121094 14.976562 -8.1875 C 14.3125 -8.984375 13.777344 -9.851562 13.179688 -10.648438 C 13.046875 -10.851562 12.847656 -11.117188 12.78125 -11.382812 C 12.179688 -12.980469 11.582031 -14.578125 11.183594 -16.242188 C 11.183594 -16.375 11.25 -16.507812 11.382812 -16.574219 C 11.515625 -16.640625 11.648438 -16.707031 11.78125 -16.707031 C 12.316406 -16.773438 12.847656 -16.707031 13.378906 -16.90625 C 13.777344 -17.039062 14.179688 -17.039062 14.578125 -17.039062 C 15.777344 -17.039062 16.90625 -17.039062 18.105469 -17.039062 C 19.636719 -17.039062 21.234375 -16.972656 22.832031 -17.039062 C 24.230469 -17.105469 25.695312 -17.105469 27.09375 -17.105469 C 28.15625 -17.105469 29.15625 -17.171875 30.152344 -17.171875 C 30.621094 -17.171875 31.019531 -17.441406 31.21875 -18.039062 C 31.351562 -18.503906 31.484375 -18.972656 31.484375 -19.4375 C 31.484375 -19.96875 31.417969 -20.503906 31.351562 -21.035156 C 31.152344 -21.832031 31.085938 -22.699219 30.820312 -23.429688 C 30.753906 -24.296875 30.488281 -25.027344 30.285156 -25.828125 C 30.152344 -26.492188 29.886719 -27.160156 29.6875 -27.824219 C 29.554688 -28.15625 29.355469 -28.554688 29.023438 -28.824219 C 28.488281 -29.421875 27.890625 -30.019531 27.160156 -30.421875 C 26.558594 -30.820312 25.894531 -31.21875 25.292969 -31.683594 C 25.027344 -31.882812 24.695312 -32.019531 24.429688 -32.152344 C 23.628906 -32.484375 22.898438 -32.75 22.097656 -33.082031 Z M 11.78125 -19.171875 C 11.714844 -19.304688 11.648438 -19.371094 11.515625 -19.503906 C 11.449219 -20.035156 11.515625 -20.570312 11.582031 -21.101562 C 11.78125 -21.832031 11.847656 -22.632812 12.113281 -23.296875 C 12.316406 -23.898438 12.515625 -24.496094 12.648438 -25.09375 C 12.847656 -25.828125 13.246094 -26.425781 13.710938 -27.023438 C 13.980469 -27.359375 14.246094 -27.691406 14.511719 -27.957031 C 14.910156 -28.488281 15.507812 -28.890625 16.109375 -29.222656 C 16.574219 -29.488281 17.105469 -29.6875 17.640625 -29.753906 C 18.304688 -29.886719 18.972656 -30.019531 19.636719 -30.152344 C 20.167969 -30.285156 20.703125 -30.21875 21.234375 -29.953125 C 21.367188 -29.886719 21.5 -29.820312 21.566406 -29.753906 C 22.03125 -29.488281 22.367188 -29.15625 22.632812 -28.757812 C 22.898438 -28.289062 23.03125 -27.757812 23.230469 -27.226562 C 23.296875 -27.160156 23.363281 -26.957031 23.363281 -26.824219 C 23.363281 -26.625 23.429688 -26.425781 23.429688 -26.226562 C 23.429688 -24.628906 23.429688 -22.964844 23.363281 -21.367188 C 23.363281 -20.835938 23.363281 -20.367188 23.230469 -19.902344 C 23.164062 -19.703125 23.097656 -19.503906 22.964844 -19.371094 C 22.898438 -19.304688 22.765625 -19.238281 22.632812 -19.171875 C 22.5 -19.105469 22.367188 -19.105469 22.234375 -19.105469 C 18.972656 -19.105469 15.710938 -19.105469 12.382812 -19.105469 C 12.179688 -19.105469 11.980469 -19.171875 11.78125 -19.171875 Z M 11.78125 -19.171875 "/></g></g></g><g fill="#372a28" fill-opacity="1"><g transform="translate(159.610657, 250.701481)"><g><path d="M 5.859375 -5.925781 C 6.125 -5.324219 6.390625 -4.726562 6.65625 -4.058594 C 6.789062 -3.859375 6.921875 -3.59375 7.054688 -3.394531 C 7.390625 -2.996094 7.789062 -2.597656 8.253906 -2.261719 C 9.054688 -1.863281 9.785156 -1.398438 10.582031 -1 C 11.25 -0.664062 11.980469 -0.332031 12.714844 -0.265625 C 13.113281 -0.199219 13.511719 0 13.910156 0 C 14.3125 0.0664062 14.710938 0.0664062 15.109375 0.0664062 C 15.710938 0.0664062 16.242188 0.0664062 16.773438 0.0664062 C 16.972656 0.0664062 17.171875 0.0664062 17.375 0 C 17.972656 -0.132812 18.570312 -0.265625 19.171875 -0.464844 C 20.035156 -0.796875 20.902344 -1.199219 21.699219 -1.730469 C 21.898438 -1.863281 22.03125 -1.996094 22.234375 -2.128906 C 22.566406 -2.464844 22.699219 -2.929688 22.699219 -3.394531 C 22.699219 -3.792969 22.367188 -4.058594 22.097656 -4.128906 C 21.632812 -4.128906 21.234375 -4.128906 20.835938 -4.058594 C 19.96875 -3.992188 19.039062 -3.925781 18.171875 -3.992188 C 17.507812 -4.058594 16.972656 -4.261719 16.507812 -4.726562 C 16.175781 -5.125 15.910156 -5.589844 15.777344 -6.125 C 15.644531 -6.390625 15.644531 -6.722656 15.574219 -6.988281 C 15.308594 -7.855469 15.242188 -8.851562 15.175781 -9.785156 C 15.175781 -10.648438 15.175781 -11.582031 15.042969 -12.449219 C 14.976562 -12.714844 14.976562 -12.980469 14.976562 -13.246094 C 14.976562 -14.445312 14.976562 -15.574219 14.976562 -16.773438 C 14.976562 -17.105469 14.976562 -17.441406 15.042969 -17.773438 C 15.175781 -18.503906 15.175781 -19.238281 15.175781 -20.035156 C 15.175781 -21.566406 15.242188 -23.164062 15.242188 -24.761719 C 15.242188 -26.226562 15.242188 -27.757812 15.242188 -29.222656 C 15.242188 -29.421875 15.242188 -29.621094 15.308594 -29.820312 C 15.375 -29.953125 15.441406 -30.085938 15.574219 -30.152344 C 15.644531 -30.21875 15.84375 -30.21875 15.976562 -30.21875 C 17.441406 -30.285156 18.972656 -30.285156 20.433594 -30.285156 C 20.902344 -30.285156 21.433594 -30.285156 21.898438 -30.285156 C 22.167969 -30.285156 22.566406 -30.621094 22.632812 -30.953125 C 22.632812 -31.21875 22.632812 -31.484375 22.632812 -31.75 C 22.566406 -31.882812 22.300781 -32.152344 22.234375 -32.21875 C 21.964844 -32.21875 21.699219 -32.21875 21.367188 -32.21875 C 19.96875 -32.285156 18.503906 -32.285156 17.105469 -32.285156 C 16.773438 -32.285156 16.441406 -32.285156 16.042969 -32.285156 C 15.644531 -32.285156 15.375 -32.617188 15.375 -33.082031 C 15.375 -33.28125 15.375 -33.546875 15.441406 -33.75 C 15.574219 -34.546875 15.644531 -35.347656 15.441406 -36.144531 C 15.375 -36.410156 15.375 -36.675781 15.375 -37.011719 C 15.375 -38.007812 15.308594 -39.007812 15.308594 -40.070312 C 15.308594 -41.070312 15.308594 -42.070312 15.308594 -43.132812 C 15.308594 -44.066406 15.308594 -45.0625 15.175781 -45.996094 C 15.175781 -46.261719 14.777344 -46.660156 14.511719 -46.660156 C 14.378906 -46.660156 14.246094 -46.660156 14.113281 -46.660156 C 13.445312 -46.660156 12.847656 -46.660156 12.246094 -46.660156 C 10.183594 -46.660156 8.121094 -46.660156 6.125 -46.660156 C 5.324219 -46.660156 4.59375 -46.726562 3.859375 -46.59375 C 3.59375 -46.59375 3.394531 -46.328125 3.460938 -45.996094 C 3.460938 -45.863281 3.59375 -45.796875 3.726562 -45.730469 C 3.925781 -45.53125 4.195312 -45.53125 4.460938 -45.398438 C 4.726562 -45.332031 4.925781 -45.0625 4.925781 -44.796875 C 4.925781 -44.730469 4.925781 -44.664062 4.925781 -44.597656 C 4.925781 -40.804688 4.925781 -36.945312 4.925781 -33.148438 C 4.925781 -33.015625 4.925781 -32.816406 4.859375 -32.75 C 4.792969 -32.617188 4.726562 -32.484375 4.59375 -32.417969 C 4.394531 -32.351562 4.195312 -32.351562 3.992188 -32.351562 C 3.394531 -32.351562 2.730469 -32.417969 2.128906 -32.285156 C 1.863281 -32.285156 1.53125 -31.949219 1.464844 -31.617188 C 1.398438 -31.351562 1.398438 -31.085938 1.464844 -30.820312 C 1.464844 -30.554688 1.730469 -30.285156 1.996094 -30.285156 C 2.664062 -30.21875 3.328125 -30.285156 3.992188 -30.21875 C 4.195312 -30.21875 4.460938 -30.21875 4.59375 -30.152344 C 4.726562 -30.152344 4.859375 -30.019531 4.925781 -29.886719 C 4.992188 -29.6875 4.992188 -29.488281 4.992188 -29.289062 C 4.992188 -28.15625 4.992188 -26.957031 4.992188 -25.828125 C 4.992188 -24.960938 4.992188 -24.164062 4.992188 -23.363281 C 5.058594 -22.433594 5.058594 -21.566406 5.058594 -20.703125 C 5.058594 -19.835938 5.058594 -19.039062 5.058594 -18.238281 C 5.058594 -17.773438 5.058594 -17.242188 5.191406 -16.773438 C 5.324219 -16.109375 5.390625 -15.441406 5.390625 -14.777344 C 5.390625 -13.113281 5.457031 -11.515625 5.457031 -9.851562 C 5.457031 -9.054688 5.523438 -8.1875 5.65625 -7.390625 C 5.792969 -6.921875 5.792969 -6.457031 5.859375 -5.925781 Z M 5.859375 -5.925781 "/></g></g></g><g fill="#372a28" fill-opacity="1"><g transform="translate(182.301742, 250.701481)"><g><path d="M 4.058594 -12.648438 C 3.859375 -12.382812 3.726562 -12.113281 3.527344 -11.914062 C 3.128906 -11.316406 2.929688 -10.71875 2.664062 -10.050781 C 2.53125 -9.453125 2.328125 -8.851562 2.195312 -8.253906 C 2.128906 -7.921875 2.0625 -7.589844 2.0625 -7.253906 C 2.0625 -6.855469 2.0625 -6.457031 2.0625 -6.058594 C 2.0625 -4.792969 2.53125 -3.59375 3.128906 -2.53125 C 3.792969 -1.53125 4.660156 -0.796875 5.792969 -0.398438 C 6.855469 -0.0664062 7.921875 0.199219 8.984375 0.199219 C 9.453125 0.199219 9.984375 0.199219 10.449219 0.199219 C 10.785156 0.199219 11.117188 0.132812 11.449219 0.0664062 C 12.113281 -0.0664062 12.78125 -0.332031 13.445312 -0.398438 C 14.246094 -0.730469 15.109375 -0.933594 15.910156 -1.398438 C 16.574219 -1.863281 17.308594 -2.195312 18.039062 -2.597656 C 18.371094 -2.796875 18.703125 -3.0625 19.039062 -3.328125 C 19.105469 -3.328125 19.171875 -3.328125 19.238281 -3.328125 C 19.4375 -3.0625 19.570312 -2.730469 19.769531 -2.464844 C 19.835938 -2.261719 19.96875 -2.0625 20.101562 -1.929688 C 20.570312 -1.464844 21.035156 -1 21.632812 -0.597656 C 21.832031 -0.53125 22.03125 -0.398438 22.234375 -0.332031 C 22.566406 -0.265625 22.964844 -0.132812 23.363281 0 C 23.898438 0.132812 24.429688 0.265625 24.960938 0.332031 C 25.359375 0.398438 25.828125 0.398438 26.226562 0.398438 C 27.359375 0.265625 28.488281 0 29.554688 -0.464844 C 29.886719 -0.597656 30.152344 -0.867188 30.285156 -1.199219 C 30.355469 -1.464844 30.285156 -1.929688 30.019531 -2.128906 C 29.820312 -2.195312 29.621094 -2.261719 29.488281 -2.394531 C 28.957031 -2.597656 28.621094 -3.0625 28.355469 -3.527344 C 28.222656 -3.925781 28.15625 -4.328125 28.15625 -4.726562 C 28.15625 -6.457031 28.15625 -8.1875 28.15625 -9.851562 C 28.15625 -10.851562 28.089844 -11.78125 28.289062 -12.714844 C 28.355469 -12.980469 28.289062 -13.3125 28.355469 -13.578125 C 28.355469 -14.84375 28.421875 -16.175781 28.421875 -17.441406 C 28.488281 -19.105469 28.421875 -20.703125 28.421875 -22.367188 C 28.421875 -23.296875 28.289062 -24.296875 28.089844 -25.226562 C 27.957031 -25.695312 27.824219 -26.09375 27.625 -26.558594 C 27.292969 -27.359375 26.757812 -28.089844 26.160156 -28.757812 C 25.828125 -29.023438 25.5625 -29.355469 25.292969 -29.621094 C 24.496094 -30.421875 23.628906 -31.019531 22.699219 -31.617188 C 22.5 -31.75 22.300781 -31.816406 22.167969 -31.882812 C 21.765625 -32.019531 21.367188 -32.152344 20.96875 -32.351562 C 20.300781 -32.683594 19.570312 -32.882812 18.90625 -33.082031 C 18.238281 -33.082031 17.640625 -33.148438 17.039062 -33.148438 C 16.707031 -33.214844 16.375 -33.214844 15.976562 -33.214844 C 15.308594 -33.214844 14.644531 -33.082031 13.980469 -32.882812 C 12.78125 -32.484375 11.515625 -32.085938 10.316406 -31.617188 C 9.320312 -31.417969 8.386719 -30.886719 7.523438 -30.355469 C 7.121094 -30.085938 6.789062 -29.753906 6.457031 -29.421875 C 5.792969 -28.824219 5.191406 -28.15625 4.792969 -27.359375 C 4.527344 -26.890625 4.261719 -26.425781 3.992188 -25.960938 C 3.726562 -25.5625 3.726562 -25.160156 3.726562 -24.761719 C 3.792969 -24.5625 3.859375 -24.363281 4.058594 -24.230469 C 4.328125 -24.03125 4.925781 -24.03125 5.191406 -24.230469 C 5.257812 -24.296875 5.324219 -24.296875 5.324219 -24.363281 C 5.589844 -24.894531 5.792969 -25.359375 6.058594 -25.828125 C 6.722656 -27.09375 7.589844 -28.15625 8.71875 -28.890625 C 9.386719 -29.421875 10.117188 -29.753906 10.917969 -29.953125 C 11.449219 -30.152344 11.980469 -30.21875 12.515625 -30.21875 C 13.046875 -30.21875 13.644531 -30.21875 14.179688 -30.21875 C 14.378906 -30.21875 14.578125 -30.21875 14.777344 -30.085938 C 15.507812 -29.820312 16.242188 -29.355469 16.839844 -28.824219 C 17.308594 -28.488281 17.640625 -28.089844 17.839844 -27.558594 C 17.90625 -27.292969 18.039062 -27.023438 18.105469 -26.757812 C 18.171875 -26.292969 18.371094 -25.828125 18.4375 -25.359375 C 18.570312 -24.828125 18.570312 -24.296875 18.636719 -23.761719 C 18.636719 -23.363281 18.703125 -22.964844 18.769531 -22.566406 C 18.835938 -22.097656 18.835938 -21.699219 18.835938 -21.300781 C 18.90625 -20.234375 18.769531 -19.105469 18.636719 -18.039062 C 18.636719 -17.773438 18.371094 -17.507812 18.105469 -17.507812 C 16.773438 -17.574219 15.375 -17.574219 14.046875 -17.507812 C 13.644531 -17.507812 13.246094 -17.441406 12.847656 -17.375 C 12.648438 -17.308594 12.449219 -17.242188 12.246094 -17.171875 C 11.515625 -17.105469 10.917969 -16.90625 10.25 -16.707031 C 8.917969 -16.308594 7.722656 -15.644531 6.589844 -14.910156 C 6.191406 -14.644531 5.792969 -14.378906 5.457031 -14.046875 C 4.992188 -13.578125 4.460938 -13.113281 4.058594 -12.648438 Z M 18.835938 -10.515625 C 18.90625 -10.25 18.90625 -9.851562 18.972656 -9.386719 C 18.972656 -8.71875 19.039062 -8.054688 18.90625 -7.390625 C 18.90625 -7.1875 18.769531 -6.988281 18.570312 -6.855469 C 18.238281 -6.65625 17.90625 -6.457031 17.507812 -6.324219 C 17.242188 -6.257812 16.972656 -6.125 16.707031 -6.125 C 15.777344 -5.992188 14.84375 -5.992188 13.84375 -5.792969 C 13.644531 -5.722656 13.445312 -5.722656 13.246094 -5.722656 C 12.515625 -5.722656 11.78125 -5.925781 11.117188 -6.257812 C 10.785156 -6.457031 10.515625 -6.65625 10.316406 -6.921875 C 9.917969 -7.457031 9.585938 -7.921875 9.453125 -8.519531 C 9.054688 -9.453125 9.121094 -10.382812 9.1875 -11.382812 C 9.1875 -11.582031 9.320312 -11.78125 9.386719 -11.980469 C 9.453125 -12.179688 9.585938 -12.449219 9.71875 -12.714844 C 9.984375 -13.3125 10.382812 -13.710938 11.050781 -13.84375 C 11.847656 -14.113281 12.582031 -14.378906 13.378906 -14.578125 C 14.3125 -14.777344 15.308594 -14.644531 16.242188 -14.644531 C 16.839844 -14.644531 17.375 -14.644531 17.90625 -14.578125 C 18.039062 -14.578125 18.171875 -14.511719 18.304688 -14.511719 C 18.503906 -14.511719 18.769531 -14.113281 18.835938 -13.910156 C 18.835938 -13.710938 18.835938 -13.511719 18.835938 -13.3125 C 18.835938 -12.449219 18.835938 -11.515625 18.835938 -10.515625 Z M 18.835938 -10.515625 "/></g></g></g><g fill="#372a28" fill-opacity="1"><g transform="translate(213.843258, 250.701481)"><g><path d="M 14.644531 -27.691406 C 14.578125 -27.691406 14.578125 -27.691406 14.578125 -27.691406 C 14.644531 -30.820312 14.644531 -34.015625 14.710938 -37.144531 C 14.710938 -39.605469 14.710938 -42.070312 14.710938 -44.53125 C 14.710938 -44.929688 14.710938 -45.332031 14.644531 -45.730469 C 14.578125 -45.996094 14.445312 -46.261719 14.179688 -46.394531 C 13.910156 -46.527344 13.710938 -46.660156 13.378906 -46.660156 C 13.3125 -46.660156 13.246094 -46.660156 13.179688 -46.660156 C 10.382812 -46.660156 7.589844 -46.660156 4.792969 -46.660156 C 4.59375 -46.660156 4.394531 -46.660156 4.195312 -46.59375 C 3.925781 -46.59375 3.660156 -46.460938 3.394531 -46.328125 C 3.394531 -46.261719 3.328125 -46.195312 3.261719 -46.195312 C 3.128906 -46.0625 3.195312 -45.796875 3.261719 -45.664062 C 3.527344 -45.398438 3.859375 -45.332031 4.195312 -45.132812 C 4.460938 -44.929688 4.726562 -44.730469 4.792969 -44.332031 C 4.992188 -43.800781 5.191406 -43.199219 5.257812 -42.601562 C 5.257812 -42.136719 5.324219 -41.734375 5.390625 -41.335938 C 5.457031 -40.9375 5.457031 -40.539062 5.457031 -40.136719 C 5.457031 -39.671875 5.457031 -39.140625 5.457031 -38.675781 C 5.523438 -32.617188 5.523438 -26.492188 5.523438 -20.433594 C 5.523438 -19.371094 5.589844 -18.238281 5.589844 -17.171875 C 5.523438 -15.507812 5.523438 -13.84375 5.457031 -12.246094 C 5.457031 -11.25 5.457031 -10.316406 5.324219 -9.386719 C 5.257812 -8.984375 5.257812 -8.519531 5.257812 -8.121094 C 5.257812 -7.1875 5.257812 -6.257812 5.257812 -5.257812 C 5.257812 -4.792969 5.257812 -4.328125 5.125 -3.859375 C 5.125 -3.59375 4.992188 -3.328125 4.859375 -3.128906 C 4.792969 -3.0625 4.726562 -2.996094 4.726562 -2.929688 C 4.261719 -2.328125 3.59375 -1.863281 2.863281 -1.664062 C 2.664062 -1.53125 2.394531 -1.464844 2.128906 -1.398438 C 1.929688 -1.332031 1.796875 -1.199219 1.664062 -1 C 1.464844 -0.796875 1.53125 -0.464844 1.730469 -0.265625 C 1.996094 -0.132812 2.195312 0 2.464844 0 C 2.730469 0 3.0625 0 3.328125 0 C 5.523438 0.0664062 7.65625 0.0664062 9.851562 0 C 11.050781 0 12.179688 0 13.378906 0 C 13.980469 0 14.578125 0.0664062 15.175781 -0.0664062 C 15.910156 -0.265625 16.574219 -0.199219 17.242188 -0.199219 C 17.574219 -0.199219 17.90625 -0.199219 18.238281 -0.265625 C 18.304688 -0.332031 18.371094 -0.332031 18.4375 -0.398438 C 18.503906 -0.53125 18.503906 -0.664062 18.4375 -0.796875 C 18.304688 -0.933594 18.171875 -1.066406 17.972656 -1.199219 C 17.574219 -1.464844 17.171875 -1.730469 16.773438 -1.996094 C 16.441406 -2.195312 16.109375 -2.464844 15.777344 -2.730469 C 15.644531 -2.863281 15.507812 -2.996094 15.441406 -3.195312 C 15.175781 -3.59375 14.976562 -4.058594 14.976562 -4.527344 C 14.976562 -5.390625 14.976562 -6.191406 14.910156 -6.988281 C 14.910156 -7.789062 14.910156 -8.519531 14.710938 -9.253906 C 14.644531 -9.785156 14.578125 -10.316406 14.578125 -10.851562 C 14.578125 -11.582031 14.578125 -12.246094 14.578125 -12.914062 C 14.511719 -15.441406 14.445312 -17.972656 14.511719 -20.503906 C 14.578125 -22.898438 14.578125 -25.292969 14.644531 -27.691406 Z M 14.644531 -27.691406 "/></g></g></g><g fill="#372a28" fill-opacity="1"><g transform="translate(232.74132, 250.701481)"><g><path d="M 14.644531 -27.691406 C 14.578125 -27.691406 14.578125 -27.691406 14.578125 -27.691406 C 14.644531 -30.820312 14.644531 -34.015625 14.710938 -37.144531 C 14.710938 -39.605469 14.710938 -42.070312 14.710938 -44.53125 C 14.710938 -44.929688 14.710938 -45.332031 14.644531 -45.730469 C 14.578125 -45.996094 14.445312 -46.261719 14.179688 -46.394531 C 13.910156 -46.527344 13.710938 -46.660156 13.378906 -46.660156 C 13.3125 -46.660156 13.246094 -46.660156 13.179688 -46.660156 C 10.382812 -46.660156 7.589844 -46.660156 4.792969 -46.660156 C 4.59375 -46.660156 4.394531 -46.660156 4.195312 -46.59375 C 3.925781 -46.59375 3.660156 -46.460938 3.394531 -46.328125 C 3.394531 -46.261719 3.328125 -46.195312 3.261719 -46.195312 C 3.128906 -46.0625 3.195312 -45.796875 3.261719 -45.664062 C 3.527344 -45.398438 3.859375 -45.332031 4.195312 -45.132812 C 4.460938 -44.929688 4.726562 -44.730469 4.792969 -44.332031 C 4.992188 -43.800781 5.191406 -43.199219 5.257812 -42.601562 C 5.257812 -42.136719 5.324219 -41.734375 5.390625 -41.335938 C 5.457031 -40.9375 5.457031 -40.539062 5.457031 -40.136719 C 5.457031 -39.671875 5.457031 -39.140625 5.457031 -38.675781 C 5.523438 -32.617188 5.523438 -26.492188 5.523438 -20.433594 C 5.523438 -19.371094 5.589844 -18.238281 5.589844 -17.171875 C 5.523438 -15.507812 5.523438 -13.84375 5.457031 -12.246094 C 5.457031 -11.25 5.457031 -10.316406 5.324219 -9.386719 C 5.257812 -8.984375 5.257812 -8.519531 5.257812 -8.121094 C 5.257812 -7.1875 5.257812 -6.257812 5.257812 -5.257812 C 5.257812 -4.792969 5.257812 -4.328125 5.125 -3.859375 C 5.125 -3.59375 4.992188 -3.328125 4.859375 -3.128906 C 4.792969 -3.0625 4.726562 -2.996094 4.726562 -2.929688 C 4.261719 -2.328125 3.59375 -1.863281 2.863281 -1.664062 C 2.664062 -1.53125 2.394531 -1.464844 2.128906 -1.398438 C 1.929688 -1.332031 1.796875 -1.199219 1.664062 -1 C 1.464844 -0.796875 1.53125 -0.464844 1.730469 -0.265625 C 1.996094 -0.132812 2.195312 0 2.464844 0 C 2.730469 0 3.0625 0 3.328125 0 C 5.523438 0.0664062 7.65625 0.0664062 9.851562 0 C 11.050781 0 12.179688 0 13.378906 0 C 13.980469 0 14.578125 0.0664062 15.175781 -0.0664062 C 15.910156 -0.265625 16.574219 -0.199219 17.242188 -0.199219 C 17.574219 -0.199219 17.90625 -0.199219 18.238281 -0.265625 C 18.304688 -0.332031 18.371094 -0.332031 18.4375 -0.398438 C 18.503906 -0.53125 18.503906 -0.664062 18.4375 -0.796875 C 18.304688 -0.933594 18.171875 -1.066406 17.972656 -1.199219 C 17.574219 -1.464844 17.171875 -1.730469 16.773438 -1.996094 C 16.441406 -2.195312 16.109375 -2.464844 15.777344 -2.730469 C 15.644531 -2.863281 15.507812 -2.996094 15.441406 -3.195312 C 15.175781 -3.59375 14.976562 -4.058594 14.976562 -4.527344 C 14.976562 -5.390625 14.976562 -6.191406 14.910156 -6.988281 C 14.910156 -7.789062 14.910156 -8.519531 14.710938 -9.253906 C 14.644531 -9.785156 14.578125 -10.316406 14.578125 -10.851562 C 14.578125 -11.582031 14.578125 -12.246094 14.578125 -12.914062 C 14.511719 -15.441406 14.445312 -17.972656 14.511719 -20.503906 C 14.578125 -22.898438 14.578125 -25.292969 14.644531 -27.691406 Z M 14.644531 -27.691406 "/></g></g></g><g fill="#372a28" fill-opacity="1"><g transform="translate(251.639381, 250.701481)"><g><path d="M 22.097656 -33.082031 C 21.566406 -33.082031 21.035156 -33.082031 20.503906 -33.148438 C 19.703125 -33.148438 18.972656 -33.082031 18.238281 -32.882812 C 17.441406 -32.75 16.640625 -32.417969 15.84375 -32.351562 C 14.910156 -32.21875 13.980469 -31.882812 13.046875 -31.617188 C 12.316406 -31.417969 11.515625 -31.085938 10.785156 -30.753906 C 9.785156 -30.355469 8.785156 -29.820312 7.988281 -29.089844 C 7.789062 -28.824219 7.457031 -28.621094 7.1875 -28.421875 C 7.054688 -28.289062 6.855469 -28.15625 6.722656 -28.023438 C 6.191406 -27.425781 5.589844 -26.824219 5.125 -26.160156 C 4.726562 -25.695312 4.394531 -25.160156 4.195312 -24.628906 C 3.660156 -23.363281 3.0625 -22.097656 2.796875 -20.769531 C 2.664062 -20.035156 2.53125 -19.304688 2.261719 -18.570312 C 2.128906 -18.039062 2.0625 -17.507812 2.0625 -16.90625 C 2.0625 -15.976562 2.0625 -15.042969 2.0625 -14.046875 C 2.0625 -13.113281 2.128906 -12.179688 2.394531 -11.25 C 2.464844 -10.984375 2.464844 -10.648438 2.53125 -10.449219 C 2.664062 -9.917969 2.796875 -9.320312 2.996094 -8.851562 C 3.859375 -6.789062 5.257812 -5.125 6.988281 -3.726562 C 8.320312 -2.929688 9.652344 -2.0625 11.050781 -1.332031 C 11.449219 -1.132812 11.914062 -0.933594 12.316406 -0.730469 C 13.378906 -0.199219 14.511719 0 15.644531 0.332031 C 16.242188 0.464844 16.90625 0.398438 17.507812 0.464844 C 18.503906 0.464844 19.503906 0.464844 20.570312 0.464844 C 20.902344 0.464844 21.234375 0.398438 21.566406 0.332031 C 23.03125 -0.132812 24.429688 -0.664062 25.761719 -1.265625 C 27.09375 -1.929688 28.289062 -2.664062 29.488281 -3.460938 C 29.6875 -3.660156 29.886719 -3.859375 30.019531 -4.058594 C 30.152344 -4.394531 30.21875 -4.726562 30.019531 -5.058594 C 29.820312 -5.523438 29.289062 -5.722656 28.824219 -5.589844 C 28.757812 -5.589844 28.6875 -5.589844 28.621094 -5.589844 C 27.957031 -5.257812 27.226562 -5.125 26.492188 -4.859375 C 25.828125 -4.59375 25.09375 -4.460938 24.363281 -4.261719 C 24.03125 -4.195312 23.695312 -4.128906 23.363281 -4.128906 C 22.566406 -4.058594 21.832031 -4.195312 21.101562 -4.394531 C 20.234375 -4.59375 19.4375 -4.859375 18.570312 -5.191406 C 18.371094 -5.257812 18.238281 -5.390625 18.039062 -5.457031 C 16.839844 -6.191406 15.84375 -7.121094 14.976562 -8.1875 C 14.3125 -8.984375 13.777344 -9.851562 13.179688 -10.648438 C 13.046875 -10.851562 12.847656 -11.117188 12.78125 -11.382812 C 12.179688 -12.980469 11.582031 -14.578125 11.183594 -16.242188 C 11.183594 -16.375 11.25 -16.507812 11.382812 -16.574219 C 11.515625 -16.640625 11.648438 -16.707031 11.78125 -16.707031 C 12.316406 -16.773438 12.847656 -16.707031 13.378906 -16.90625 C 13.777344 -17.039062 14.179688 -17.039062 14.578125 -17.039062 C 15.777344 -17.039062 16.90625 -17.039062 18.105469 -17.039062 C 19.636719 -17.039062 21.234375 -16.972656 22.832031 -17.039062 C 24.230469 -17.105469 25.695312 -17.105469 27.09375 -17.105469 C 28.15625 -17.105469 29.15625 -17.171875 30.152344 -17.171875 C 30.621094 -17.171875 31.019531 -17.441406 31.21875 -18.039062 C 31.351562 -18.503906 31.484375 -18.972656 31.484375 -19.4375 C 31.484375 -19.96875 31.417969 -20.503906 31.351562 -21.035156 C 31.152344 -21.832031 31.085938 -22.699219 30.820312 -23.429688 C 30.753906 -24.296875 30.488281 -25.027344 30.285156 -25.828125 C 30.152344 -26.492188 29.886719 -27.160156 29.6875 -27.824219 C 29.554688 -28.15625 29.355469 -28.554688 29.023438 -28.824219 C 28.488281 -29.421875 27.890625 -30.019531 27.160156 -30.421875 C 26.558594 -30.820312 25.894531 -31.21875 25.292969 -31.683594 C 25.027344 -31.882812 24.695312 -32.019531 24.429688 -32.152344 C 23.628906 -32.484375 22.898438 -32.75 22.097656 -33.082031 Z M 11.78125 -19.171875 C 11.714844 -19.304688 11.648438 -19.371094 11.515625 -19.503906 C 11.449219 -20.035156 11.515625 -20.570312 11.582031 -21.101562 C 11.78125 -21.832031 11.847656 -22.632812 12.113281 -23.296875 C 12.316406 -23.898438 12.515625 -24.496094 12.648438 -25.09375 C 12.847656 -25.828125 13.246094 -26.425781 13.710938 -27.023438 C 13.980469 -27.359375 14.246094 -27.691406 14.511719 -27.957031 C 14.910156 -28.488281 15.507812 -28.890625 16.109375 -29.222656 C 16.574219 -29.488281 17.105469 -29.6875 17.640625 -29.753906 C 18.304688 -29.886719 18.972656 -30.019531 19.636719 -30.152344 C 20.167969 -30.285156 20.703125 -30.21875 21.234375 -29.953125 C 21.367188 -29.886719 21.5 -29.820312 21.566406 -29.753906 C 22.03125 -29.488281 22.367188 -29.15625 22.632812 -28.757812 C 22.898438 -28.289062 23.03125 -27.757812 23.230469 -27.226562 C 23.296875 -27.160156 23.363281 -26.957031 23.363281 -26.824219 C 23.363281 -26.625 23.429688 -26.425781 23.429688 -26.226562 C 23.429688 -24.628906 23.429688 -22.964844 23.363281 -21.367188 C 23.363281 -20.835938 23.363281 -20.367188 23.230469 -19.902344 C 23.164062 -19.703125 23.097656 -19.503906 22.964844 -19.371094 C 22.898438 -19.304688 22.765625 -19.238281 22.632812 -19.171875 C 22.5 -19.105469 22.367188 -19.105469 22.234375 -19.105469 C 18.972656 -19.105469 15.710938 -19.105469 12.382812 -19.105469 C 12.179688 -19.105469 11.980469 -19.171875 11.78125 -19.171875 Z M 11.78125 -19.171875 "/></g></g></g><g clip-path="url(#b26d3e6980)"><path fill="#000000" d="M 277.113281 94.648438 C 270.820312 92.5 262.347656 105.167969 262.347656 105.167969 C 262.347656 105.167969 268.636719 88.488281 278.714844 91.339844 C 291.289062 94.898438 271.191406 113.515625 271.191406 113.515625 C 271.191406 113.515625 286.871094 121.0625 312.085938 103.472656 L 313.035156 111.722656 C 282.851562 124.828125 266.121094 114.960938 266.121094 114.960938 C 266.121094 114.960938 283.402344 96.800781 277.113281 94.648438 " fill-opacity="1" fill-rule="nonzero"/></g><g clip-path="url(#73094c7c47)"><path fill="#000000" d="M 252.648438 94.648438 C 256.347656 93.386719 260.800781 97.242188 263.839844 100.636719 C 264.058594 100.25 264.289062 99.855469 264.535156 99.453125 C 261.757812 94.925781 257.082031 89.628906 251.046875 91.339844 C 238.472656 94.898438 258.570312 113.515625 258.570312 113.515625 C 258.570312 113.515625 251.535156 114.847656 242.753906 113.875 C 232.929688 112.785156 222.953125 112.03125 212.222656 125.335938 L 215.359375 132.097656 C 218.839844 127.960938 223.386719 117.960938 238.164062 117.960938 C 256.640625 117.960938 263.640625 114.960938 263.640625 114.960938 C 263.640625 114.960938 246.355469 96.800781 252.648438 94.648438 " fill-opacity="1" fill-rule="nonzero"/></g><g clip-path="url(#dace38a6e1)"><path fill="#b9931b" d="M 235.730469 179.632812 L 262.425781 179.632812 L 262.425781 136.300781 L 233.417969 136.300781 L 235.730469 179.632812 " fill-opacity="1" fill-rule="nonzero"/></g><path fill="#b9931b" d="M 230.167969 132.097656 L 262.425781 132.097656 L 262.425781 124.347656 L 230.167969 124.347656 L 230.167969 132.097656 " fill-opacity="1" fill-rule="nonzero"/><g clip-path="url(#3fcfb02922)"><path fill="#b9931b" d="M 267.464844 179.632812 L 294.15625 179.632812 L 296.472656 136.300781 L 267.464844 136.300781 L 267.464844 179.632812 " fill-opacity="1" fill-rule="nonzero"/></g><path fill="#b9931b" d="M 267.464844 124.347656 L 267.464844 132.097656 L 299.722656 132.097656 L 299.722656 124.347656 L 267.464844 124.347656 " fill-opacity="1" fill-rule="nonzero"/><g fill="#7b6404" fill-opacity="0.4"><g transform="translate(92.821726, 179.881181)"><g><path d="M 2.703125 -63.378906 C 3.167969 -63.007812 3.820312 -62.632812 4.566406 -62.261719 C 6.058594 -61.515625 7.082031 -59.929688 7.082031 -58.253906 L 7.082031 -9.132812 C 7.082031 -7.457031 6.058594 -5.871094 4.566406 -5.125 C 3.820312 -4.753906 3.167969 -4.378906 2.703125 -4.007812 C 1.117188 -2.890625 1.957031 0 3.820312 0 L 59.277344 0 C 60.957031 0 62.351562 -1.117188 62.726562 -2.703125 C 63.378906 -5.21875 64.3125 -9.039062 64.777344 -12.394531 C 65.242188 -14.914062 63.84375 -16.3125 62.074219 -16.3125 C 60.769531 -16.3125 59.371094 -15.566406 58.347656 -13.980469 C 55.828125 -10.160156 54.429688 -5.59375 44.738281 -5.59375 L 32.714844 -5.59375 C 31.035156 -5.59375 29.917969 -6.710938 29.917969 -8.386719 L 29.917969 -32.25 L 36.628906 -32.25 C 48.746094 -32.25 44.644531 -24.792969 48.839844 -24.417969 C 53.683594 -23.953125 54.246094 -46.136719 49.304688 -45.949219 C 44.832031 -45.761719 48.746094 -37.746094 36.628906 -37.746094 L 29.917969 -37.746094 L 29.917969 -59 C 29.917969 -60.675781 31.035156 -61.792969 32.714844 -61.792969 L 42.875 -61.792969 C 52.566406 -61.792969 53.964844 -57.132812 56.480469 -53.3125 C 57.507812 -51.820312 58.90625 -51.074219 60.117188 -51.074219 C 61.886719 -51.074219 63.285156 -52.378906 62.914062 -54.992188 C 62.351562 -58.347656 61.515625 -62.074219 60.863281 -64.589844 C 60.488281 -66.269531 59 -67.386719 57.320312 -67.386719 L 3.820312 -67.386719 C 1.957031 -67.386719 1.117188 -64.496094 2.703125 -63.378906 Z M 2.703125 -63.378906 "/></g></g></g><g fill="#7b6404" fill-opacity="0.4"><g transform="translate(160.205061, 179.881181)"><g><path d="M 2.703125 -63.566406 C 3.167969 -63.191406 3.820312 -62.820312 4.566406 -62.445312 C 6.058594 -61.699219 7.082031 -60.117188 7.082031 -58.4375 L 7.082031 -9.132812 C 7.082031 -7.457031 6.058594 -5.871094 4.566406 -5.125 C 3.820312 -4.753906 3.167969 -4.378906 2.703125 -4.007812 C 1.117188 -2.890625 1.957031 0 3.820312 0 L 56.480469 0 C 58.160156 0 59.558594 -1.117188 59.929688 -2.703125 C 60.582031 -5.21875 61.515625 -9.039062 61.980469 -12.394531 C 62.445312 -14.914062 61.046875 -16.3125 59.277344 -16.3125 C 57.972656 -16.3125 56.574219 -15.566406 55.550781 -13.980469 C 53.03125 -10.160156 51.636719 -5.59375 41.941406 -5.59375 L 32.714844 -5.59375 C 31.035156 -5.59375 29.917969 -6.710938 29.917969 -8.386719 L 29.917969 -58.4375 C 29.917969 -60.023438 30.851562 -61.609375 32.34375 -62.539062 C 32.808594 -62.820312 33.367188 -63.191406 33.925781 -63.566406 C 35.511719 -64.683594 34.671875 -67.574219 32.714844 -67.574219 L 3.820312 -67.574219 C 1.957031 -67.574219 1.117188 -64.683594 2.703125 -63.566406 Z M 2.703125 -63.566406 "/></g></g></g><g fill="#372a28" fill-opacity="1"><g transform="translate(88.702206, 175.761661)"><g><path d="M 2.703125 -63.378906 C 3.167969 -63.007812 3.820312 -62.632812 4.566406 -62.261719 C 6.058594 -61.515625 7.082031 -59.929688 7.082031 -58.253906 L 7.082031 -9.132812 C 7.082031 -7.457031 6.058594 -5.871094 4.566406 -5.125 C 3.820312 -4.753906 3.167969 -4.378906 2.703125 -4.007812 C 1.117188 -2.890625 1.957031 0 3.820312 0 L 59.277344 0 C 60.957031 0 62.351562 -1.117188 62.726562 -2.703125 C 63.378906 -5.21875 64.3125 -9.039062 64.777344 -12.394531 C 65.242188 -14.914062 63.84375 -16.3125 62.074219 -16.3125 C 60.769531 -16.3125 59.371094 -15.566406 58.347656 -13.980469 C 55.828125 -10.160156 54.429688 -5.59375 44.738281 -5.59375 L 32.714844 -5.59375 C 31.035156 -5.59375 29.917969 -6.710938 29.917969 -8.386719 L 29.917969 -32.25 L 36.628906 -32.25 C 48.746094 -32.25 44.644531 -24.792969 48.839844 -24.417969 C 53.683594 -23.953125 54.246094 -46.136719 49.304688 -45.949219 C 44.832031 -45.761719 48.746094 -37.746094 36.628906 -37.746094 L 29.917969 -37.746094 L 29.917969 -59 C 29.917969 -60.675781 31.035156 -61.792969 32.714844 -61.792969 L 42.875 -61.792969 C 52.566406 -61.792969 53.964844 -57.132812 56.480469 -53.3125 C 57.507812 -51.820312 58.90625 -51.074219 60.117188 -51.074219 C 61.886719 -51.074219 63.285156 -52.378906 62.914062 -54.992188 C 62.351562 -58.347656 61.515625 -62.074219 60.863281 -64.589844 C 60.488281 -66.269531 59 -67.386719 57.320312 -67.386719 L 3.820312 -67.386719 C 1.957031 -67.386719 1.117188 -64.496094 2.703125 -63.378906 Z M 2.703125 -63.378906 "/></g></g></g><g fill="#372a28" fill-opacity="1"><g transform="translate(156.08554, 175.761661)"><g><path d="M 2.703125 -63.566406 C 3.167969 -63.191406 3.820312 -62.820312 4.566406 -62.445312 C 6.058594 -61.699219 7.082031 -60.117188 7.082031 -58.4375 L 7.082031 -9.132812 C 7.082031 -7.457031 6.058594 -5.871094 4.566406 -5.125 C 3.820312 -4.753906 3.167969 -4.378906 2.703125 -4.007812 C 1.117188 -2.890625 1.957031 0 3.820312 0 L 56.480469 0 C 58.160156 0 59.558594 -1.117188 59.929688 -2.703125 C 60.582031 -5.21875 61.515625 -9.039062 61.980469 -12.394531 C 62.445312 -14.914062 61.046875 -16.3125 59.277344 -16.3125 C 57.972656 -16.3125 56.574219 -15.566406 55.550781 -13.980469 C 53.03125 -10.160156 51.636719 -5.59375 41.941406 -5.59375 L 32.714844 -5.59375 C 31.035156 -5.59375 29.917969 -6.710938 29.917969 -8.386719 L 29.917969 -58.4375 C 29.917969 -60.023438 30.851562 -61.609375 32.34375 -62.539062 C 32.808594 -62.820312 33.367188 -63.191406 33.925781 -63.566406 C 35.511719 -64.683594 34.671875 -67.574219 32.714844 -67.574219 L 3.820312 -67.574219 C 1.957031 -67.574219 1.117188 -64.683594 2.703125 -63.566406 Z M 2.703125 -63.566406 "/></g></g></g></svg>